<?xml version="1.0" encoding="UTF-8"?>
<svg xmlns="http://www.w3.org/2000/svg" viewBox="0 0 2000 2000">
  <defs>
    <style>
      .cls-1 {
        fill: #3f3f3f;
      }

      .cls-1, .cls-2, .cls-3 {
        stroke-width: 0px;
      }

      .cls-2 {
        fill: #bebebe;
      }

      .cls-3 {
        fill: #fff;
      }
    </style>
  </defs>
  <g id="Background">
    <rect class="cls-3" width="2000" height="2000"/>
  </g>
  <g id="Art">
    <g id="Anterior_Body" data-name="Anterior Body">
      <path class="cls-2" d="M1930.22,1021.96c-2.44-2.56-15.49-10.97-18.66-14.27-3.17-3.29-3.17-5.85-11.95-20.97-8.78-15.12-41.52-28.53-45.18-29.26-3.66-.73-10.79-9.69-12.62-14.63-7.54-20.36-25.24-89.99-32.92-152.17-7.68-62.19-36.58-97.3-52.31-118.89.73-59.63-12.94-72.05-20.49-91.08.73-15,5.94-47.59,2.42-90.44-2.79-33.94-45.22-74.42-71.56-78.08-17.06-2.37-26.46,1.71-48.53,0-22.07-1.71-63.41-38.78-65.6-43.16-2.19-4.39-6.83-40.97-3.41-45.6,3.41-4.63,3.9-.24,7.32-9.75,3.41-9.51,1.57-26.61,1.57-26.61,0,0,.91-3.65,1.54-1.13.37,1.46,1.1,2.99,2.74,3.84,2.55,1.32,5.73-4.84,9.08-10.67,8.91-15.51,17.26-45.11,4.94-48.83-2.24-.68-5.49,5.12-5.49,5.12,0-2.93,2.93-30-1.46-46.82-3.52-13.48-16.68-26.95-27.07-35.12-12.69-9.97-38.58-10.68-45.03-10.73h0c-.13,0-.37,0-.57,0-.2,0-.44,0-.57,0h0c-6.45.05-32.33.76-45.03,10.73-10.39,8.16-23.55,21.64-27.07,35.12-4.39,16.83-1.46,43.9-1.46,46.82,0,0-3.24-5.8-5.49-5.12-12.32,3.72-3.97,33.32,4.94,48.83,3.35,5.83,6.53,11.99,9.08,10.67,1.65-.85,2.38-2.38,2.74-3.84.63-2.52,1.54,1.13,1.54,1.13,0,0-1.84,17.1,1.57,26.61,3.41,9.51,3.9,5.12,7.32,9.75,3.41,4.63-1.22,41.21-3.41,45.6-2.19,4.39-43.53,41.46-65.6,43.16-22.07,1.71-31.47-2.37-48.53,0-26.34,3.66-68.77,44.14-71.56,78.08-3.52,42.85,1.69,75.44,2.42,90.44-7.54,19.04-21.22,31.46-20.49,91.08-15.73,21.58-44.63,56.7-52.31,118.89-7.68,62.19-25.38,131.81-32.92,152.17-1.83,4.94-8.96,13.9-12.62,14.63-3.66.73-36.4,14.14-45.18,29.26-8.78,15.12-8.78,17.68-11.95,20.97-3.17,3.29-16.22,11.71-18.66,14.27-2.44,2.56-4.15,12.19,2.68,13.78,6.83,1.59,25.09-2.38,31.03-15.73,7.13-4.66,8.87-4.76,8.87-4.76,0,0,2.41,7.32,2.04,13.17-.37,5.85-12.38,23.78-17.13,34.39-4.76,10.61-19.02,30.18-15.18,35.67,3.84,5.49,9.33,4.57,11.71,2.74,2.38-1.83,15.91-24.78,18.56-28.81,3.02-3.93,14.36-18.56,16.37-20.76-3.23,13.35-8.47,29.08-10.55,35.3-2.07,6.22-11.74,24.94-11.83,31.34-.12,8.9,6.02,10.87,10.12,8.17,11.46-7.56,17.9-26.93,20.73-32.56,4.79-9.53,10-26.46,14.88-34.26-1.22,9.51-4.2,22.62-5.79,33.71-.81,5.61-5.73,34.5.55,36.4,9.69,2.93,10.97-8.23,14.81-21.4,3.84-13.17,8.6-45.73,11.52-50.66,4.39.91,3.73,4.02,4.57,12.8,1.11,11.54.18,40.24,8.6,40.24s9.02-28.9,10.12-46.46c1.1-17.56,6.83-26.83,9.75-41.21,2.93-14.39,9.74-34.38,9.27-51.21-.22-7.82-3.54-14.75,3.17-39.75,4.11-15.34,55.85-116.57,61.66-126.08,6.3-10.3,18.08-40.97,21.01-64.38,2.93-23.41,2.44-24.39,3.9-35.6,1.46-11.22,6-16.16,11.71-22.92,6.58-7.8,16.1-30.97,23.41-62.55,3.41-.12,4.46-2.94,6.1-1.83,0,0,4.39,49.99,13.41,63.89,9.02,13.9,6.34,19.02,8.29,24.14,1.95,5.12.98,38.53-.49,57.06-1.46,18.53-5.73,83.16-9.75,98.52-4.02,15.36-9.02,21.95-12.92,41.46-3.9,19.51-10.12,45.05-11.46,69.01,0,0-8.2,56.88-7.44,78.28.81,22.93-5.12,178.88,27.8,216.92-1.59,7.44-.12,20.36.12,24.26.24,3.9-9.27,44.38-5.61,71.45,3.66,27.07,2.19,17.68,1.46,24.45-.73,6.77-30,97.49,13.9,264.54,2.62,9.98,3.66,30.12,3.66,40.73s-3.66,31.46-3.66,41.34-.37,14.63,1.83,20.85c2.19,6.22,1.83,16.46.37,24.14-1.46,7.68-31.09,28.53-33.65,39.87-2.56,11.34-5.85,17.92-1.1,21.22,4.76,3.29,6.95,0,6.95,0,0,0-1.83,5.49,1.1,8.41,2.93,2.93,11.71,2.56,11.71,2.56,0,0,2.93.73,4.76,3.66,1.83,2.93,9.51,4.39,11.34,2.56,1.83-1.83,2.93-1.68,4.39.81.79,1.34,4.04,2.92,6.86,4.09,2.71,1.12,5.79.88,8.29-.66l5.7-3.51s4.76,5.49,5.85,5.85c1.1.37,12.44,4.39,15.36,0,2.93-4.39,16.83-15,16.1-27.44-.73-12.44-1.83-19.39-1.46-23.78.37-4.39,1.46-10.97,3.29-17.56,1.83-6.58,4.02-9.51,2.56-21.95-1.46-12.44-.37-13.17-.37-15.36s1.83-8.05,2.19-14.63c.37-6.58-4.76-20.12-4.76-20.12,0,0-2.19-13.17-3.29-31.09-1.1-17.92,2.56-88.52,9.88-111.94,7.32-23.41,11.61-30.74,12.44-36.58,8.78-61.82-5.48-128.38-8.05-151.93-1.46-13.41,4.39-14.88,8.05-28.41,3.66-13.53,6.58-47.19,2.56-62.19-2.95-11,10.24-51.21,12.07-63.65,1.83-12.44,26.95-108.64,28.29-125.84,1.34-17.19,3.05-70.52-1.46-78.57,2.15,0,8.3,4.27,10.93,5.02.11.1.3.12.53.1.23.02.42,0,.53-.1,2.62-.74,8.78-5.02,10.93-5.02-4.51,8.05-2.8,61.37-1.46,78.57,1.34,17.19,26.46,113.4,28.29,125.84,1.83,12.44,15.02,52.65,12.07,63.65-4.02,15-1.1,48.65,2.56,62.19,3.66,13.53,9.51,15,8.05,28.41-2.57,23.55-16.83,90.11-8.05,151.93.83,5.84,5.12,13.17,12.44,36.58,7.32,23.41,10.97,94.01,9.88,111.94-1.1,17.92-3.29,31.09-3.29,31.09,0,0-5.12,13.53-4.76,20.12.37,6.58,2.2,12.44,2.2,14.63s1.1,2.93-.37,15.36c-1.46,12.44.73,15.36,2.56,21.95,1.83,6.58,2.93,13.17,3.29,17.56.37,4.39-.73,11.34-1.46,23.78-.73,12.44,13.17,23.05,16.1,27.44,2.93,4.39,14.27.37,15.36,0,1.1-.37,5.85-5.85,5.85-5.85l5.7,3.51c2.5,1.54,5.58,1.78,8.29.66,2.82-1.17,6.07-2.75,6.86-4.09,1.46-2.49,2.56-2.64,4.39-.81,1.83,1.83,9.51.37,11.34-2.56,1.83-2.93,4.76-3.66,4.76-3.66,0,0,8.78.37,11.71-2.56,2.93-2.93,1.1-8.41,1.1-8.41,0,0,2.19,3.29,6.95,0,4.76-3.29,1.46-9.88-1.1-21.22-2.56-11.34-32.19-32.19-33.65-39.87-1.46-7.68-1.83-17.92.37-24.14,2.19-6.22,1.83-10.97,1.83-20.85s-3.66-30.73-3.66-41.34,1.03-30.74,3.66-40.73c43.9-167.05,14.63-257.77,13.9-264.54-.73-6.77-2.19,2.62,1.46-24.45,3.66-27.07-5.85-67.55-5.61-71.45s1.71-16.83.12-24.26c32.92-38.04,26.99-193.99,27.8-216.92.76-21.4-7.44-78.28-7.44-78.28-1.34-23.97-7.56-49.51-11.46-69.01-3.9-19.51-8.9-26.09-12.92-41.46-4.02-15.36-8.29-79.99-9.75-98.52-1.46-18.53-2.44-51.94-.49-57.06,1.95-5.12-.73-10.24,8.29-24.14,9.02-13.9,13.41-63.89,13.41-63.89,1.64-1.11,2.68,1.71,6.1,1.83,7.32,31.58,16.83,54.75,23.41,62.55,5.71,6.76,10.24,11.71,11.71,22.92,1.46,11.22.98,12.19,3.9,35.6,2.93,23.41,14.71,54.08,21.01,64.38,5.82,9.51,57.55,110.74,61.66,126.08,6.71,25,3.39,31.93,3.17,39.75-.48,16.84,6.34,36.82,9.27,51.21,2.93,14.39,8.66,23.66,9.75,41.21,1.1,17.56,1.71,46.46,10.12,46.46s7.49-28.7,8.6-40.24c.84-8.79.18-11.89,4.57-12.8,2.93,4.94,7.68,37.49,11.52,50.66s5.12,24.33,14.82,21.4c6.28-1.89,1.36-30.79.55-36.4-1.6-11.1-4.57-24.2-5.79-33.71,4.88,7.8,10.08,24.74,14.88,34.26,2.83,5.63,9.27,25,20.73,32.56,4.1,2.7,10.24.73,10.12-8.17-.09-6.4-9.75-25.12-11.83-31.34-2.07-6.22-7.32-21.95-10.55-35.3,2.01,2.19,13.35,16.83,16.37,20.76,2.65,4.02,16.19,26.98,18.56,28.81,2.38,1.83,7.86,2.74,11.71-2.74,3.84-5.49-10.43-25.06-15.18-35.67-4.76-10.61-16.77-28.53-17.13-34.39-.37-5.85,2.04-13.17,2.04-13.17,0,0,1.74.09,8.87,4.76,5.94,13.35,24.2,17.31,31.03,15.73,6.83-1.59,5.12-11.22,2.68-13.78Z"/>
      <g>
        <path class="cls-1" d="M1333.36,1828.37c7.32,0,76.09-1.46,78.53,4.39,2.44,5.85,10.44,20-4.29,20s-55.21-6.83-62.53-9.75c-7.32-2.93-16.1-10.24-16.1-10.24l4.39-4.39Z"/>
        <path class="cls-1" d="M1404.86,898.99c-26.57,15.85-41.54,27.07-50.53,41.7-8.99,14.63-7.32,40.97,4.88,67.31,12.19,26.34,37.56,55.85,50.72,55.85s34.75,16.72,57.07,8.16c19.37-7.43,11.87-20.81,13.85-38.33,2.77-24.42,8.83-23,12.12-80.92.79-13.94-2.38-37.19-6.28-44.99-3.9-7.8-11.89-17.8-15.3-22.19-3.41-4.39-5.61-14.03-34.14-1.46-11.82,5.21-15.39,4.74-32.39,14.88Z"/>
        <path class="cls-1" d="M1384.33,417.6c13.17,13.9,28.08,68.54,36.58,97.3,9.8,33.15,16.87,53.58,42.43,95.11,17.19,27.93,16.1,46.09,19.75,43.16,5.12-56.33,16.83-209.97-2.93-226.07-19.75-16.1-26.34-13.17-48.29-16.1-21.95-2.93-47.55,6.58-47.55,6.58Z"/>
        <path class="cls-1" d="M1335.44,469.05c15.41-8.51,31.43-15.99,47.83-22.37,1.76-.68,3.6-1.37,5.48-1.19,8.62.79,12.39,27.57,13.95,33.76,4.97,19.8,9.82,39.61,16.01,59.07,7.54,23.7-27.49,3.66-34.39,0-11.22-5.96-22.02-10.42-31.31-19.56-11.16-10.97-16.7-25.49-23.06-39.45-2.15-4.71-3.05-5.41,1.66-8.11,1.27-.73,2.54-1.44,3.82-2.15Z"/>
        <path class="cls-1" d="M1350.77,438.56c-4.87-3.12-11.61-6.84-12.6-7.18-7.36-2.51-15.44-2.97-23.09-1.66-12.53,2.14-25.35,12.59-34.71,20.81-6.07,5.33-11.76,14.81-14.73,22.32-4.59,11.61-2.84,21.37-2.82,33.55.03,14.4.06,28.8.08,43.2,0,.11,15.08-6.05,16.48-6.84,7.84-4.38,14.76-10.11,21.38-16.14,5.79-5.28,13.58-12.47,13.58-20.98,0-12.83,3.01-25.78,9.96-36.67,7.81-12.25,20.7-17.17,31.5-26.17.51-.43-1.86-2.2-5.02-4.23Z"/>
        <path class="cls-1" d="M1334.86,508.91c.36.77.68,1.4.96,1.8,4.67,6.88,10.66,12.81,17.22,17.88,11.84,9.16,26.25,18.51,41.16,20.94,8.6,1.4,11.61,2.41,13.9,3.69,2.29,1.28-2.01,5.12-2.01,5.58s-13.23,7.56-27.38,9.27c-21.02,2.54-42.41-6.7-52.01-26.12-3.63-7.35-5.46-15.49-5.87-23.65-.34-6.75-1.72-14.37,2.87-20.11,4.53-5.66,8.75,5.63,11.15,10.72Z"/>
        <path class="cls-1" d="M1311.9,526.61c-49.49,35.12-48.77,57.55-44.38,86.33,4,26.19,15.8-2.14,23.72-7.96,5.76-4.24,11.61-8.31,17.28-12.69,1.86-1.44,12.86-8.19,12.48-11.05-.32-2.44-9.1-54.63-9.1-54.63Z"/>
        <path class="cls-1" d="M1319.22,591.72c-9.94,8.32-19.72,16.92-28.98,26-9.29,9.11-11.23,15.68-11.4,28.95-.23,19.14-5.97,37.6-8.83,56.4-1.45,9.55-2.21,19.28-.97,28.89,1.46,11.33,3.65,5.85,8.7.35,2.56-2.79,5.07-5.61,7.42-8.58,7.25-9.14,7.36-17.05,8.82-28.49,1.6-12.53,11.21-17.1,16.83-28.53,3.51-7.14,5.45-22.54,8.96-29.68,7.3-14.84,9.28-31.8,4.21-47.51,0,0-4.76,2.19-4.76,2.2Z"/>
        <path class="cls-1" d="M1426.52,553.92c7.8,14.42,24.39,54.42,30.24,65.63,5.85,11.22,14.63,15.61,12.68,27.31-1.95,11.71-17.66,54.35-24.39,68.49-6.72,14.14-16.58,42.92-21.95,55.88-5.72,13.82-10.73,28.78-13.17,36.09-1.97,5.92-20.9-21.09-28.03-31.59-1.78-2.61-2.99-5.55-3.56-8.66-1.95-10.6-6.85-37.61-10.85-62.67-2.32-14.52-6.83-20.48-10.73-52.68-3.9-32.19-1.95-26.83-11.71-43.41-9.75-16.58-12.19-38.04-10.24-38.53,13.17,9.75,27.19,9.53,36.85,11.22,2.62.46,10.82,1.63,20.7-1.69,16.4-5.51,18.92-8.29,22.33-14.63s11.81-10.78,11.81-10.78Z"/>
        <path class="cls-1" d="M1378.68,785.03c1.35.4,2.57,1.32,3.83,2.72,5.16,5.76,9.95,11.86,14.33,18.25,4.11,6,9.66,13.07,11.27,20.31,1.29,5.82-16.17,13.65-19.78,15.97-8.81,5.66-16.34,12.45-21.69,21.57-3.18,5.43-4.29,2.3-4.99-2.18-2.09-13.43-3.71-27.61-2.57-41.43.97-11.65,2.66-29.87,14.92-34.77,1.8-.72,3.3-.86,4.68-.45Z"/>
        <path class="cls-1" d="M1434.93,1086.77c8.78,7.8,33.31,50.99,25.51,92.93-7.8,41.95,12.11-26.85,16.56-53.79,3.52-21.3,5.71-37.56,1.71-41.09-6.28-5.55-43.77,1.95-43.77,1.95Z"/>
        <path class="cls-1" d="M1329.46,1037.27c-2.93,19.02,3.9,162.9,15.12,206.31,11.22,43.41,8.67,17.07,6.29-4.39-2.38-21.46,4.44-76.57,5.42-96.08.98-19.51-2.93-67.8-11.22-88.77-8.29-20.97-6.83-21.95-11.71-29.26-4.88-7.32-3.9,12.19-3.9,12.19Z"/>
        <path class="cls-1" d="M1359.36,1305.03c-5.06,24.84-7.95,68.77-10.39,70.72,20.97-22.44,44.28-105.03,49.75-132.66,5.41-27.29,5.49-117.12,7.93-131.75,2.44-14.63-.19-13.55-2.46-21.4-3.29-11.4-16.7-29.93-23.6-36.82-26.34-26.34-5.77,176.07-21.23,251.92Z"/>
        <path class="cls-1" d="M1453.34,1180.17c0,25.85-23.41,93.16-21.95,123.4s-4.65,82.92-5.63,87.3c10.24-23.9,15.11-75.6,15.6-100.96.49-25.36,17.34-69.26,15.39-83.89s-3.41-25.85-3.41-25.85Z"/>
        <path class="cls-1" d="M1368.97,1365.76c-39.51,46.09-29.63,159-23.05,189,6.58,30,7.44,35.26,21.26,35.07,5.42-.07,17.64-7.75,15.45-32.63-2.19-24.87.49-93.82.49-121.45,0-16.1,4.39-94.52,4.39-94.52l-18.53,24.53Z"/>
        <path class="cls-1" d="M1394.66,1398.19c5.47,57.07,1.14,128.23,0,149.73-1.08,20.48-2.11,39.95,7.64,41.9,9.75,1.95,33.25-29.1,37.64-57.63,3.49-22.68-2.62-71.08-6.58-92.55-5.62-30.42-12.62-41.46-20.21-57.07-7.59-15.61-14.78-33.17-16.06-40.48-1.28-7.32-2.42,56.09-2.42,56.09Z"/>
        <path class="cls-1" d="M1372.15,1756.56c5.37,23.9,4.1,34.69,14.39,36.82,18.78,3.9,22.44-11.22,23.41-22.92.98-11.71,6.34-16.58,6.34-16.58,0,0-.18,43.41-2.44,54.14-1.95,9.27-1.86,14.86-11.86,14.86-14.07,0-24.12,2.33-31.06.02-7.85-2.62-4.77-35.27-5.85-50.48-1.25-17.56-2.07-21.09-1.09-25.48.98-4.39,8.17,9.63,8.17,9.63Z"/>
        <path class="cls-1" d="M1369.36,1604.27c6.63.17,12.14,5.21,12.96,11.79,4.72,37.85,8.49,131.56,7.62,137.69-.98,6.83-4.29,38.96-7.32,24.27-8.9-43.17-14.2-105.78-19.51-131.69-5.12-25-14.14-31.09-4.39-38.9,4.98-3.98,4.1-3.33,10.64-3.16Z"/>
        <path class="cls-1" d="M1398.21,1609.38c-8.14,9.27.52,172.45,1.97,172.56,1.46.1,5.37-52.57,12.68-82.81,7.32-30.24,7.59-79.86,7.56-79.99-2.95-11.69-16.1-13.94-22.21-9.75Z"/>
        <path class="cls-1" d="M1416.82,1108.07c-4.61,19.92-23.01,235-4.61,258.91,7.8-13.17,13.53-128.27,31.34-174.61,9.25-24.06-.73-55.36-5.08-71.94-1.41-5.38-15.36-28.04-15.36-28.04l-6.29,15.69Z"/>
        <path class="cls-1" d="M1255.2,606.35c-6.34,17.52-17.92,75.36-12.56,100.24,1.26,5.83,5.82,18.42,9.93,6.56,6.46-18.64,14.6-37.37,19.17-56.59,3.01-12.65-8.86-34.48-16.54-50.21Z"/>
        <path class="cls-1" d="M1233.72,722.64c.59,6.44,1.68,12.83,1.8,19.38.23,12.56-4.01,38.75,7.91,47.7,10.56-10,14.81-27.62,14-41.68-.47-8.06-8.07-13.41-13.03-19.24-3.76-4.41-7.44-8.9-11.05-13.44,0,2.44.15,4.87.37,7.28Z"/>
        <path class="cls-1" d="M1213.38,736.82c-3.9,32.68-22.44,180.22-34.63,211.92-.98,15.12,45.91-77.73,51.4-108.64,4.35-24.51-3.11-72.06-8.47-83.77-5.37-11.71-8.29-19.51-8.29-19.51Z"/>
        <path class="cls-1" d="M1264.35,768.53c-4.63,3.66-7.25,9.67-7.47,10.25-21.97,57.32-30.92,101.62-57.16,152.41-1.75,3.39-5.15,12.9-9.27,14.13,14.63-4.39,37.31-67.42,66.12-117.67,6.26-10.92,23.87-54.73,25.33-60.58,1.1-4.43-13.69-1.59-17.56,1.46Z"/>
        <path class="cls-1" d="M1196.43,768.28c-7.32,30.24-16.96,124.49-38.42,180.46,17.56-11.71,28.3-53.41,31.23-70.48,6.2-36.17,11.16-76.01,13.62-112.57.24-3.61.34-10.14-3.97-11.26-2.08,4.11-1.78,9.35-2.46,13.85Z"/>
        <path class="cls-1" d="M1444.08,865.1c-7.8-4.39-44.78-15.61-59.5-7.32-13.41,7.56-32.68,51.1-31.7,66.09,15.95-9.75,46.94-35.25,61.09-40.97,14.14-5.72,35.97-11.46,35.97-11.46l-5.85-6.34Z"/>
        <path class="cls-1" d="M1476.27,673.42c-1.9-3.92-4.88,6.83-10.73,17.07-5.85,10.24-26.34,59.02-30.24,69.75-1.89,5.2-30.48,74.01-22.07,79.5,24.42,15.93,66.94,43.16,66.94,43.16,12.68-49.51,4.39-192.41-3.9-209.48Z"/>
        <path class="cls-1" d="M1462.43,306.53c-1.47,2.77-1,6.65-.79,10.23.47,8.02-1.57,17.82-2.69,25.85-1.45,10.42-6.3,24.13-11.34,33.29-4.55,8.28-9.73,8.32-17.8,13.46-4.86,3.09-7.02,3.21-11.91,6.24-1.07.66-6.46,3.77-5.92,5.28.49,1.37,8.29,1.58,9.74,1.74,14.34,1.59,28.8,1.08,43.19.56,4.34-.15,8.67-.31,13.01-.46,1.89-.07,3.89-.17,5.47-1.22,2.73-1.83,3.06-5.65,3.12-8.94.48-28.09.96-52.12,1.44-80.21.04-2.41,0-5.07-1.6-6.88-1.04-1.18-2.56-1.79-4.07-2.22-5.05-1.47-10.53-1.46-15.58.03-2.17.64-3.49,1.8-4.26,3.26Z"/>
        <path class="cls-1" d="M1158.57,957.04c2.02-.35,4.05-.44,6.09-.2,11.62,1.38,31.87,3.72,36.48,16.86.54,1.53.58,3.17.59,4.79.16,17.13-1.93,34.31-6.34,50.87-.83,3.11-1.8,6.25-3.64,8.89-10.4,14.89-38.44,4.77-50.17-2.66-10.6-6.71-26.53-17.09-27.26-30.73-.65-12.12,6.6-25.12,16.35-32.04,7.99-5.67,17.73-14.02,27.89-15.78Z"/>
        <path class="cls-1" d="M1175.52,1051.66c-.14,7.75-.25,15.5-.2,23.25.05,4.98.19,9.97.69,14.94.42,4.13.52,11.78,3.12,15.03,1.55,1.93,5.92-9.97,6.06-10.7.68-3.38.56-45.37,2.39-45.58-4.08.47-8.19,1.7-12.06,3.06Z"/>
        <path class="cls-1" d="M1151.23,1051.03c-3.22,13.53-4.35,27.69-6.65,41.41-.75,4.49-1.51,8.98-2.21,13.48-.92,5.95-1.94,10.86-1.27,16.98.06.57.15,1.17.51,1.61,1.69,2.02,5.72-.04,6.96-1.57,1.37-1.7,1.92-3.9,2.27-6.05.97-5.98,2.39-11.89,3.6-17.84,1.83-9.01,3.56-18.05,5.38-27.06,1.12-5.54,2.24-11.08,3.36-16.62.14-.67.27-1.4-.03-2.02-.61-1.27-11.89-2.45-11.93-2.32Z"/>
        <path class="cls-1" d="M1129.8,1045.02c-1.94,2.01-3.24,9.4-3.86,11.24-1.68,5.04-3.47,10.04-5.31,15.02-3.62,9.78-7.46,19.48-11.16,29.23-2.47,6.5-5.71,12.78-5.62,19.91.05,3.81,4.76,1.93,6.76.99,6.39-3.02,7.2-8.04,9.6-13.96,1.86-4.58,3.76-9.14,5.67-13.69,5.94-14.12,11.96-28.18,18.73-41.92.25-.51.51-1.04.57-1.61.52-5.06-11.37-5.59-14.35-5.71-.36-.01-.7.17-1.02.51Z"/>
        <path class="cls-1" d="M1112.93,1029.38c-3.44,2.89-10.71,19.33-11.99,21.68-3.65,6.75-7.29,13.5-10.93,20.25-2.94,5.45-8.7,12.6-9.38,18.88-.21,1.55-1.63,10.07,2.16,8.34.57-.26,1-.74,1.41-1.21,10-11.34,17.77-23.92,26.36-36.29,2.52-3.63,4.91-7.34,7.58-10.86,2.3-3.03,6.23-5.86,8.05-9.1.79-1.41.69-3.13.57-4.74-.04-.58-.09-1.18-.4-1.67-.28-.45-.75-.76-1.2-1.04-3.47-2.12-7.27-3.7-11.22-4.66-.28-.07-.63.09-1.02.42Z"/>
        <path class="cls-1" d="M1110.14,978.74c-6.1,5.85-16.1,17.28-20.24,25.95-4.15,8.68-21.95,12.09-22.19,17.46-.24,5.37-1.46,8.78.98,9.02,2.44.24,11.71.73,17.31-4.39,5.61-5.12,9.75-8.05,13.41-13.17,3.66-5.12,6.83-11.22,8.54-19.27,1.71-8.05,6.58-19.27,6.58-19.27l-4.39,3.66Z"/>
        <path class="cls-1" d="M1661.5,1828.37c-7.32,0-76.09-1.46-78.53,4.39-2.44,5.85-10.44,20,4.29,20s55.21-6.83,62.53-9.75c7.32-2.93,16.1-10.24,16.1-10.24l-4.39-4.39Z"/>
        <path class="cls-1" d="M1588.28,898.99c26.57,15.85,41.54,27.07,50.53,41.7,8.99,14.63,7.32,40.97-4.88,67.31-12.19,26.34-37.56,55.85-50.72,55.85s-34.75,16.72-57.07,8.16c-19.37-7.43-11.87-20.81-13.85-38.33-2.77-24.42-8.83-23-12.12-80.92-.79-13.94,2.38-37.19,6.28-44.99,3.9-7.8,11.89-17.8,15.3-22.19,3.41-4.39,5.61-14.03,34.14-1.46,11.82,5.21,15.39,4.74,32.39,14.88Z"/>
        <path class="cls-1" d="M1608.81,417.6c-13.17,13.9-28.08,68.54-36.58,97.3-9.8,33.15-16.87,53.58-42.43,95.11-17.19,27.93-16.1,46.09-19.75,43.16-5.12-56.33-16.83-209.97,2.93-226.07,19.75-16.1,26.34-13.17,48.29-16.1,21.95-2.93,47.55,6.58,47.55,6.58Z"/>
        <path class="cls-1" d="M1657.7,469.05c-15.41-8.51-31.43-15.99-47.83-22.37-1.76-.68-3.6-1.37-5.48-1.19-8.62.79-12.39,27.57-13.95,33.76-4.97,19.8-9.82,39.61-16.01,59.07-7.54,23.7,27.49,3.66,34.39,0,11.22-5.96,22.02-10.42,31.31-19.56,11.16-10.97,16.7-25.49,23.06-39.45,2.15-4.71,3.05-5.41-1.66-8.11-1.27-.73-2.54-1.44-3.82-2.15Z"/>
        <path class="cls-1" d="M1642.37,438.56c4.87-3.12,11.61-6.84,12.6-7.18,7.36-2.51,15.44-2.97,23.09-1.66,12.53,2.14,25.35,12.59,34.71,20.81,6.06,5.33,11.76,14.81,14.73,22.32,4.59,11.61,2.84,21.37,2.82,33.55-.03,14.4-.06,28.8-.08,43.2,0,.11-15.08-6.05-16.48-6.84-7.84-4.38-14.76-10.11-21.38-16.14-5.79-5.28-13.58-12.47-13.58-20.98,0-12.83-3.01-25.78-9.96-36.67-7.81-12.25-20.7-17.17-31.5-26.17-.51-.43,1.86-2.2,5.02-4.23Z"/>
        <path class="cls-1" d="M1658.28,508.91c-.36.77-.68,1.4-.96,1.8-4.67,6.88-10.66,12.81-17.22,17.88-11.84,9.16-26.25,18.51-41.16,20.94-8.6,1.4-11.61,2.41-13.9,3.69-2.29,1.28,2.01,5.12,2.01,5.58s13.23,7.56,27.38,9.27c21.02,2.54,42.41-6.7,52.01-26.12,3.63-7.35,5.46-15.49,5.87-23.65.34-6.75,1.72-14.37-2.87-20.11-4.53-5.66-8.75,5.63-11.15,10.72Z"/>
        <path class="cls-1" d="M1681.24,526.61c49.49,35.12,48.77,57.55,44.38,86.33-4,26.19-15.8-2.14-23.72-7.96-5.76-4.24-11.61-8.31-17.28-12.69-1.86-1.44-12.86-8.19-12.48-11.05.32-2.44,9.1-54.63,9.1-54.63Z"/>
        <path class="cls-1" d="M1673.93,591.72c9.94,8.32,19.72,16.92,28.98,26,9.29,9.11,11.23,15.68,11.4,28.95.23,19.14,5.97,37.6,8.83,56.4,1.45,9.55,2.21,19.28.97,28.89-1.46,11.33-3.65,5.85-8.7.35-2.56-2.79-5.07-5.61-7.42-8.58-7.25-9.14-7.36-17.05-8.82-28.49-1.6-12.53-11.21-17.1-16.83-28.53-3.51-7.14-5.45-22.54-8.96-29.68-7.3-14.84-9.28-31.8-4.21-47.51,0,0,4.76,2.19,4.76,2.2Z"/>
        <path class="cls-1" d="M1566.62,553.92c-7.8,14.42-24.39,54.42-30.24,65.63-5.85,11.22-14.63,15.61-12.68,27.31,1.95,11.71,17.66,54.35,24.39,68.49,6.72,14.14,16.58,42.92,21.95,55.88,5.72,13.82,10.73,28.78,13.17,36.09,1.97,5.92,20.9-21.09,28.03-31.59,1.77-2.61,2.98-5.55,3.56-8.66,1.95-10.6,6.85-37.61,10.85-62.67,2.32-14.52,6.83-20.48,10.73-52.68,3.9-32.19,1.95-26.83,11.71-43.41,9.75-16.58,12.19-38.04,10.24-38.53-13.17,9.75-27.19,9.53-36.85,11.22-2.62.46-10.82,1.63-20.7-1.69-16.4-5.51-18.92-8.29-22.33-14.63-3.41-6.34-11.81-10.78-11.81-10.78Z"/>
        <path class="cls-1" d="M1614.46,785.03c-1.35.4-2.57,1.32-3.83,2.72-5.16,5.76-9.95,11.86-14.33,18.25-4.11,6-9.66,13.07-11.27,20.31-1.29,5.82,16.17,13.65,19.78,15.97,8.81,5.66,16.34,12.45,21.69,21.57,3.18,5.43,4.29,2.3,4.99-2.18,2.09-13.43,3.71-27.61,2.57-41.43-.97-11.65-2.66-29.87-14.92-34.77-1.8-.72-3.3-.86-4.68-.45Z"/>
        <path class="cls-1" d="M1558.21,1086.77c-8.78,7.8-33.31,50.99-25.51,92.93,7.8,41.95-12.11-26.85-16.56-53.79-3.52-21.3-5.71-37.56-1.71-41.09,6.28-5.55,43.77,1.95,43.77,1.95Z"/>
        <path class="cls-1" d="M1663.68,1037.27c2.93,19.02-3.9,162.9-15.12,206.31-11.22,43.41-8.67,17.07-6.29-4.39,2.38-21.46-4.44-76.57-5.42-96.08-.98-19.51,2.93-67.8,11.22-88.77,8.29-20.97,6.83-21.95,11.71-29.26,4.88-7.32,3.9,12.19,3.9,12.19Z"/>
        <path class="cls-1" d="M1633.78,1305.03c5.06,24.84,7.95,68.77,10.39,70.72-20.97-22.44-44.28-105.03-49.75-132.66-5.41-27.29-5.49-117.12-7.93-131.75-2.44-14.63.19-13.55,2.46-21.4,3.29-11.4,16.7-29.93,23.6-36.82,26.34-26.34,5.77,176.07,21.23,251.92Z"/>
        <path class="cls-1" d="M1539.8,1180.17c0,25.85,23.41,93.16,21.95,123.4s4.65,82.92,5.63,87.3c-10.24-23.9-15.11-75.6-15.6-100.96-.49-25.36-17.34-69.26-15.39-83.89s3.41-25.85,3.41-25.85Z"/>
        <path class="cls-1" d="M1624.17,1365.76c39.51,46.09,29.63,159,23.05,189-6.58,30-7.44,35.26-21.26,35.07-5.42-.07-17.64-7.75-15.45-32.63,2.19-24.87-.49-93.82-.49-121.45,0-16.1-4.39-94.52-4.39-94.52l18.53,24.53Z"/>
        <path class="cls-1" d="M1598.48,1398.19c-5.47,57.07-1.14,128.23,0,149.73,1.08,20.48,2.11,39.95-7.64,41.9-9.75,1.95-33.25-29.1-37.64-57.63-3.49-22.68,2.62-71.08,6.58-92.55,5.62-30.42,12.62-41.46,20.21-57.07,7.59-15.61,14.78-33.17,16.06-40.48,1.28-7.32,2.42,56.09,2.42,56.09Z"/>
        <path class="cls-1" d="M1620.99,1756.56c-5.37,23.9-4.1,34.69-14.39,36.82-18.78,3.9-22.44-11.22-23.41-22.92-.98-11.71-6.34-16.58-6.34-16.58,0,0,.18,43.41,2.44,54.14,1.95,9.27,1.86,14.86,11.86,14.86,14.07,0,24.12,2.33,31.06.02,7.85-2.62,4.77-35.27,5.85-50.48,1.25-17.56,2.07-21.09,1.09-25.48-.98-4.39-8.17,9.63-8.17,9.63Z"/>
        <path class="cls-1" d="M1623.78,1604.27c-6.63.17-12.14,5.21-12.96,11.79-4.72,37.85-8.49,131.56-7.62,137.69.98,6.83,4.29,38.96,7.32,24.27,8.9-43.17,14.2-105.78,19.51-131.69,5.12-25,14.14-31.09,4.39-38.9-4.98-3.98-4.1-3.33-10.64-3.16Z"/>
        <path class="cls-1" d="M1594.93,1609.38c8.14,9.27-.52,172.45-1.97,172.56-1.46.1-5.37-52.57-12.68-82.81-7.32-30.24-7.59-79.86-7.56-79.99,2.95-11.69,16.1-13.94,22.21-9.75Z"/>
        <path class="cls-1" d="M1576.32,1108.07c4.61,19.92,23.01,235,4.61,258.91-7.8-13.17-13.53-128.27-31.34-174.61-9.25-24.06.73-55.36,5.08-71.94,1.41-5.38,15.36-28.04,15.36-28.04l6.29,15.69Z"/>
        <path class="cls-1" d="M1737.94,606.35c6.34,17.52,17.92,75.36,12.56,100.24-1.26,5.83-5.82,18.42-9.93,6.56-6.46-18.64-14.6-37.37-19.17-56.59-3.01-12.65,8.86-34.48,16.54-50.21Z"/>
        <path class="cls-1" d="M1759.42,722.64c-.59,6.44-1.68,12.83-1.8,19.38-.23,12.56,4.01,38.75-7.91,47.7-10.56-10-14.81-27.62-14-41.68.47-8.06,8.07-13.41,13.03-19.24,3.76-4.41,7.44-8.9,11.05-13.44,0,2.44-.15,4.87-.37,7.28Z"/>
        <path class="cls-1" d="M1779.76,736.82c3.9,32.68,22.44,180.22,34.63,211.92.98,15.12-45.91-77.73-51.4-108.64-4.35-24.51,3.11-72.06,8.47-83.77,5.37-11.71,8.29-19.51,8.29-19.51Z"/>
        <path class="cls-1" d="M1728.79,768.53c4.63,3.66,7.25,9.67,7.47,10.25,21.97,57.32,30.92,101.62,57.16,152.41,1.75,3.39,5.15,12.9,9.27,14.13-14.63-4.39-37.31-67.42-66.12-117.67-6.26-10.92-23.87-54.73-25.33-60.58-1.1-4.43,13.69-1.59,17.56,1.46Z"/>
        <path class="cls-1" d="M1796.71,768.28c7.32,30.24,16.96,124.49,38.42,180.46-17.56-11.71-28.3-53.41-31.23-70.48-6.2-36.17-11.16-76.01-13.62-112.57-.24-3.61-.34-10.14,3.97-11.26,2.08,4.11,1.78,9.35,2.46,13.85Z"/>
        <path class="cls-1" d="M1549.06,865.1c7.8-4.39,44.78-15.61,59.5-7.32,13.41,7.56,32.68,51.1,31.7,66.09-15.95-9.75-46.94-35.25-61.09-40.97-14.14-5.72-35.97-11.46-35.97-11.46l5.85-6.34Z"/>
        <path class="cls-1" d="M1516.87,673.42c1.9-3.92,4.88,6.83,10.73,17.07,5.85,10.24,26.34,59.02,30.24,69.75,1.89,5.2,30.48,74.01,22.07,79.5-24.42,15.93-66.94,43.16-66.94,43.16-12.68-49.51-4.39-192.41,3.9-209.48Z"/>
        <path class="cls-1" d="M1530.71,306.53c1.47,2.77,1,6.65.79,10.23-.47,8.02,1.57,17.82,2.69,25.85,1.45,10.42,6.3,24.13,11.34,33.29,4.55,8.28,9.73,8.32,17.8,13.46,4.86,3.09,7.02,3.21,11.91,6.24,1.07.66,6.46,3.77,5.92,5.28-.49,1.37-8.29,1.58-9.74,1.74-14.34,1.59-28.8,1.08-43.19.56-4.34-.15-8.67-.31-13.01-.46-1.89-.07-3.89-.17-5.47-1.22-2.73-1.83-3.06-5.65-3.12-8.94-.48-28.09-.96-52.12-1.44-80.21-.04-2.41,0-5.07,1.6-6.88,1.04-1.18,2.56-1.79,4.07-2.22,5.05-1.47,10.53-1.46,15.58.03,2.17.64,3.49,1.8,4.26,3.26Z"/>
        <path class="cls-1" d="M1834.57,957.04c-2.02-.35-4.05-.44-6.09-.2-11.62,1.38-31.87,3.72-36.48,16.86-.54,1.53-.58,3.17-.59,4.79-.16,17.13,1.93,34.31,6.34,50.87.83,3.11,1.8,6.25,3.64,8.89,10.4,14.89,38.44,4.77,50.17-2.66,10.6-6.71,26.53-17.09,27.26-30.73.65-12.12-6.6-25.12-16.35-32.04-7.99-5.67-17.73-14.02-27.89-15.78Z"/>
        <path class="cls-1" d="M1817.62,1051.66c.14,7.75.25,15.5.2,23.25-.05,4.98-.19,9.97-.69,14.94-.42,4.13-.52,11.78-3.12,15.03-1.55,1.93-5.92-9.97-6.06-10.7-.68-3.38-.56-45.37-2.39-45.58,4.08.47,8.19,1.7,12.06,3.06Z"/>
        <path class="cls-1" d="M1841.91,1051.03c3.22,13.53,4.35,27.69,6.65,41.41.75,4.49,1.51,8.98,2.21,13.48.92,5.95,1.94,10.86,1.27,16.98-.06.57-.15,1.17-.51,1.61-1.69,2.02-5.72-.04-6.96-1.57-1.37-1.7-1.92-3.9-2.27-6.05-.97-5.98-2.39-11.89-3.6-17.84-1.83-9.01-3.56-18.05-5.38-27.06-1.12-5.54-2.24-11.08-3.36-16.62-.14-.67-.27-1.4.03-2.02.61-1.27,11.89-2.45,11.93-2.32Z"/>
        <path class="cls-1" d="M1863.34,1045.02c1.94,2.01,3.24,9.4,3.86,11.24,1.68,5.04,3.47,10.04,5.31,15.02,3.62,9.78,7.46,19.48,11.16,29.23,2.47,6.5,5.71,12.78,5.62,19.91-.05,3.81-4.76,1.93-6.76.99-6.39-3.02-7.2-8.04-9.6-13.96-1.86-4.58-3.76-9.14-5.67-13.69-5.94-14.12-11.96-28.18-18.73-41.92-.25-.51-.51-1.04-.57-1.61-.52-5.06,11.37-5.59,14.36-5.71.36-.01.7.17,1.02.51Z"/>
        <path class="cls-1" d="M1880.22,1029.38c3.44,2.89,10.72,19.33,11.99,21.68,3.65,6.75,7.29,13.5,10.93,20.25,2.94,5.45,8.7,12.6,9.38,18.88.21,1.55,1.63,10.07-2.16,8.34-.57-.26-1-.74-1.41-1.21-10-11.34-17.77-23.92-26.36-36.29-2.52-3.63-4.91-7.34-7.58-10.86-2.3-3.03-6.23-5.86-8.05-9.1-.79-1.41-.69-3.13-.57-4.74.04-.58.09-1.18.4-1.67.28-.45.75-.76,1.2-1.04,3.47-2.12,7.27-3.7,11.22-4.66.28-.07.63.09,1.02.42Z"/>
        <path class="cls-1" d="M1883,978.74c6.1,5.85,16.1,17.28,20.24,25.95,4.15,8.68,21.95,12.09,22.19,17.46.24,5.37,1.46,8.78-.98,9.02-2.44.24-11.71.73-17.31-4.39s-9.75-8.05-13.41-13.17c-3.66-5.12-6.83-11.22-8.54-19.27-1.71-8.05-6.58-19.27-6.58-19.27l4.39,3.66Z"/>
      </g>
    </g>
    <g id="Posterior_Body" data-name="Posterior Body">
      <path class="cls-2" d="M936.23,1021.96c-2.44-2.56-15.49-10.97-18.66-14.27-3.17-3.29-3.17-5.85-11.95-20.97-8.78-15.12-41.52-28.53-45.18-29.26-3.66-.73-10.79-9.69-12.62-14.63-7.54-20.36-25.24-89.99-32.92-152.17-7.68-62.19-36.58-97.3-52.31-118.89.73-59.63-12.94-72.05-20.49-91.08.73-15,5.94-47.59,2.42-90.44-2.79-33.94-45.22-74.42-71.56-78.08-17.06-2.37-26.46,1.71-48.53,0-22.07-1.71-63.41-38.78-65.6-43.16-2.19-4.39-6.83-40.97-3.41-45.6,3.41-4.63,3.9-.24,7.32-9.75,3.41-9.51,1.57-26.61,1.57-26.61,0,0,.91-3.65,1.54-1.13.37,1.46,1.1,2.99,2.74,3.84,2.55,1.32,5.73-4.84,9.08-10.67,8.91-15.51,17.26-45.11,4.94-48.83-2.24-.68-5.49,5.12-5.49,5.12,0-2.93,2.93-30-1.46-46.82-3.52-13.48-16.68-26.95-27.07-35.12-12.69-9.97-38.58-10.68-45.03-10.73h0c-.13,0-.37,0-.57,0-.2,0-.44,0-.57,0h0c-6.45.05-32.33.76-45.03,10.73-10.39,8.16-23.55,21.64-27.07,35.12-4.39,16.83-1.46,43.9-1.46,46.82,0,0-3.24-5.8-5.49-5.12-12.32,3.72-3.97,33.32,4.94,48.83,3.35,5.83,6.53,11.99,9.08,10.67,1.65-.85,2.38-2.38,2.74-3.84.63-2.52,1.54,1.13,1.54,1.13,0,0-1.84,17.1,1.57,26.61,3.41,9.51,3.9,5.12,7.32,9.75,3.41,4.63-1.22,41.21-3.41,45.6-2.19,4.39-43.53,41.46-65.6,43.16-22.07,1.71-31.47-2.37-48.53,0-26.34,3.66-68.77,44.14-71.56,78.08-3.52,42.85,1.69,75.44,2.42,90.44-7.54,19.04-21.22,31.46-20.49,91.08-15.73,21.58-44.63,56.7-52.31,118.89-7.68,62.19-25.38,131.81-32.92,152.17-1.83,4.94-8.96,13.9-12.62,14.63-3.66.73-36.4,14.14-45.18,29.26-8.78,15.12-8.78,17.68-11.95,20.97-3.17,3.29-16.22,11.71-18.66,14.27-2.44,2.56-4.15,12.19,2.68,13.78,6.83,1.59,25.09-2.38,31.03-15.73,7.13-4.66,8.87-4.76,8.87-4.76,0,0,2.41,7.32,2.04,13.17-.37,5.85-12.38,23.78-17.13,34.39-4.76,10.61-19.02,30.18-15.18,35.67,3.84,5.49,9.33,4.57,11.71,2.74,2.38-1.83,15.91-24.78,18.56-28.81,3.02-3.93,14.36-18.56,16.37-20.76-3.23,13.35-8.47,29.08-10.55,35.3-2.07,6.22-11.74,24.94-11.83,31.34-.12,8.9,6.02,10.87,10.12,8.17,11.46-7.56,17.9-26.93,20.73-32.56,4.79-9.53,10-26.46,14.88-34.26-1.22,9.51-4.2,22.62-5.79,33.71-.81,5.61-5.73,34.5.55,36.4,9.69,2.93,10.97-8.23,14.81-21.4,3.84-13.17,8.6-45.73,11.52-50.66,4.39.91,3.73,4.02,4.57,12.8,1.11,11.54.18,40.24,8.6,40.24s9.02-28.9,10.12-46.46c1.1-17.56,6.83-26.83,9.75-41.21,2.93-14.39,9.74-34.38,9.27-51.21-.22-7.82-3.54-14.75,3.17-39.75,4.11-15.34,55.85-116.57,61.66-126.08,6.3-10.3,18.08-40.97,21.01-64.38,2.93-23.41,2.44-24.39,3.9-35.6,1.46-11.22,6-16.16,11.71-22.92,6.58-7.8,16.1-30.97,23.41-62.55,3.41-.12,4.46-2.94,6.1-1.83,0,0,4.39,49.99,13.41,63.89,9.02,13.9,6.34,19.02,8.29,24.14,1.95,5.12.98,38.53-.49,57.06-1.46,18.53-5.73,83.16-9.75,98.52-4.02,15.36-9.02,21.95-12.92,41.46-3.9,19.51-10.12,45.05-11.46,69.01,0,0-8.2,56.88-7.44,78.28.81,22.93-5.12,178.88,27.8,216.92-1.59,7.44-.12,20.36.12,24.26.24,3.9-9.27,44.38-5.61,71.45,3.66,27.07,2.19,17.68,1.46,24.45-.73,6.77-30,97.49,13.9,264.54,2.62,9.98,3.66,30.12,3.66,40.73s-3.66,31.46-3.66,41.34-.37,14.63,1.83,20.85c2.19,6.22,1.83,16.46.37,24.14-1.46,7.68-31.09,28.53-33.65,39.87-2.56,11.34-5.85,17.92-1.1,21.22,4.76,3.29,6.95,0,6.95,0,0,0-1.83,5.49,1.1,8.41s11.71,2.56,11.71,2.56c0,0,2.93.73,4.76,3.66,1.83,2.93,9.51,4.39,11.34,2.56,1.83-1.83,2.93-1.68,4.39.81.79,1.34,4.04,2.92,6.86,4.09,2.71,1.12,5.79.88,8.29-.66l5.7-3.51s4.76,5.49,5.85,5.85c1.1.37,12.44,4.39,15.36,0,2.93-4.39,16.83-15,16.1-27.44-.73-12.44-1.83-19.39-1.46-23.78.37-4.39,1.46-10.97,3.29-17.56,1.83-6.58,4.02-9.51,2.56-21.95-1.46-12.44-.37-13.17-.37-15.36s1.83-8.05,2.19-14.63c.37-6.58-4.76-20.12-4.76-20.12,0,0-2.2-13.17-3.29-31.09-1.1-17.92,2.56-88.52,9.88-111.94,7.32-23.41,11.61-30.74,12.44-36.58,8.78-61.82-5.48-128.38-8.05-151.93-1.46-13.41,4.39-14.88,8.05-28.41,3.66-13.53,6.58-47.19,2.56-62.19-2.95-11,10.24-51.21,12.07-63.65,1.83-12.44,26.95-108.64,28.29-125.84,1.34-17.19,3.05-70.52-1.46-78.57,2.15,0,8.3,4.27,10.93,5.02.11.1.3.12.53.1.23.02.42,0,.53-.1,2.62-.74,8.78-5.02,10.93-5.02-4.51,8.05-2.8,61.37-1.46,78.57,1.34,17.19,26.46,113.4,28.29,125.84,1.83,12.44,15.02,52.65,12.07,63.65-4.02,15-1.1,48.65,2.56,62.19,3.66,13.53,9.51,15,8.05,28.41-2.57,23.55-16.83,90.11-8.05,151.93.83,5.84,5.12,13.17,12.44,36.58,7.32,23.41,10.97,94.01,9.88,111.94-1.1,17.92-3.29,31.09-3.29,31.09,0,0-5.12,13.53-4.76,20.12.37,6.58,2.2,12.44,2.2,14.63s1.1,2.93-.37,15.36c-1.46,12.44.73,15.36,2.56,21.95,1.83,6.58,2.93,13.17,3.29,17.56.37,4.39-.73,11.34-1.46,23.78-.73,12.44,13.17,23.05,16.1,27.44,2.93,4.39,14.27.37,15.36,0,1.1-.37,5.85-5.85,5.85-5.85l5.7,3.51c2.5,1.54,5.58,1.78,8.29.66,2.82-1.17,6.07-2.75,6.86-4.09,1.46-2.49,2.56-2.64,4.39-.81,1.83,1.83,9.51.37,11.34-2.56,1.83-2.93,4.76-3.66,4.76-3.66,0,0,8.78.37,11.71-2.56,2.93-2.93,1.1-8.41,1.1-8.41,0,0,2.19,3.29,6.95,0,4.76-3.29,1.46-9.88-1.1-21.22-2.56-11.34-32.19-32.19-33.65-39.87-1.46-7.68-1.83-17.92.37-24.14,2.19-6.22,1.83-10.97,1.83-20.85s-3.66-30.73-3.66-41.34,1.03-30.74,3.66-40.73c43.9-167.05,14.63-257.77,13.9-264.54-.73-6.77-2.2,2.62,1.46-24.45,3.66-27.07-5.85-67.55-5.61-71.45.24-3.9,1.71-16.83.12-24.26,32.92-38.04,26.99-193.99,27.8-216.92.76-21.4-7.44-78.28-7.44-78.28-1.34-23.97-7.56-49.51-11.46-69.01-3.9-19.51-8.9-26.09-12.92-41.46-4.02-15.36-8.29-79.99-9.75-98.52-1.46-18.53-2.44-51.94-.49-57.06,1.95-5.12-.73-10.24,8.29-24.14,9.02-13.9,13.41-63.89,13.41-63.89,1.64-1.11,2.68,1.71,6.1,1.83,7.32,31.58,16.83,54.75,23.41,62.55,5.71,6.76,10.24,11.71,11.71,22.92,1.46,11.22.98,12.19,3.9,35.6,2.93,23.41,14.71,54.08,21.01,64.38,5.82,9.51,57.55,110.74,61.66,126.08,6.71,25,3.39,31.93,3.17,39.75-.47,16.84,6.34,36.82,9.27,51.21,2.93,14.39,8.66,23.66,9.75,41.21,1.1,17.56,1.71,46.46,10.12,46.46s7.49-28.7,8.6-40.24c.84-8.79.18-11.89,4.57-12.8,2.93,4.94,7.68,37.49,11.52,50.66,3.84,13.17,5.12,24.33,14.82,21.4,6.28-1.89,1.36-30.79.55-36.4-1.6-11.1-4.57-24.2-5.79-33.71,4.88,7.8,10.08,24.74,14.88,34.26,2.83,5.63,9.27,25,20.73,32.56,4.1,2.7,10.24.73,10.12-8.17-.09-6.4-9.75-25.12-11.83-31.34-2.07-6.22-7.32-21.95-10.55-35.3,2.01,2.19,13.35,16.83,16.37,20.76,2.65,4.02,16.19,26.98,18.56,28.81,2.38,1.83,7.86,2.74,11.71-2.74,3.84-5.49-10.43-25.06-15.18-35.67-4.76-10.61-16.77-28.53-17.13-34.39-.37-5.85,2.04-13.17,2.04-13.17,0,0,1.74.09,8.87,4.76,5.94,13.35,24.2,17.31,31.03,15.73,6.83-1.59,5.12-11.22,2.68-13.78Z"/>
      <g>
        <path class="cls-1" d="M352.96,505.01c-2.35,31.47,5.9,69.53,31.23,84.64,9.3,5.55,20.1,7.97,30.71,10.11,33.33,6.72,73.63-9.88,76.89-40.34,3.49-32.59,8.45-71.6-6.18-100.13-9.73-18.98-19.14-19.02-29.75-20.12-10.61-1.1-43.41-2.19-56.22,3.66-16.64,7.61-36.25,18.66-42.1,37.07-2.32,7.32-3.91,15.93-4.59,25.11Z"/>
        <path class="cls-1" d="M363.19,577.82c10.24,12.07,25.49,20.52,34.26,25.01,4.43,2.27,4.88,10.84,1.22,11.93-3.66,1.1-33.65-9.6-37.31-16.32-3.66-6.72-4.76-16.6-4.02-20.62s5.85,0,5.85,0Z"/>
        <path class="cls-1" d="M352.98,606.15c-.14.81-.12,1.63.09,2.42,3.4,12.63,15.42,33.77,20.24,36.18,2.93,1.46,16.46-13.17,18.29-14.27,1.83-1.1,5.85-6.58,5.85-6.58,0,0-29.07-10.51-34.6-15.55-1.96-1.78-8.29-11.64-8.29-11.64l-1.59,9.43Z"/>
        <path class="cls-1" d="M355.02,629.4s-2.56,19.39,4.39,34.02c6.95,14.63,9.88,16.46,9.88,16.46,0,0,8.78-23.41,5.12-27.07s-19.39-23.41-19.39-23.41Z"/>
        <path class="cls-1" d="M374.87,723.96c4.63,7.07,35.33,30.18,38.5,34.08,3.17,3.9-.03,27.74,1.04,37.07-12.19-2.93-38.09-24.26-39.8-32.56-1.71-8.29.26-38.59.26-38.59Z"/>
        <path class="cls-1" d="M373.31,685.77c1.71,1.83,28.72,24.51,40,29.82,4.83,2.28,1.09,37.49,1.09,37.49,0,0-33.37-26.9-38.4-34.95-5.04-8.05-3.11-13.22-3.6-16.64-.49-3.41.91-15.72.91-15.72Z"/>
        <path class="cls-1" d="M430.01,617.69c-6.53,4.43-6.58,17.19-7.68,22.31-1.1,5.12,2.56,28.17,2.56,28.17,0,0,3.66,18.29,5.12,20.49,1.83,2.74,49.91-28.37,54.53-31.23,3.9-2.41,8.94-2.36,10.76-7.45,3-8.37,1.43-18.59,1.06-27.39-.32-7.74.14-24.23-7.26-29.08-6.63-4.35-15.58,3.13-21.5,5.74-10.21,4.51-20.44,9.06-30.33,14.26-2.47,1.3-4.96,2.62-7.27,4.19Z"/>
        <path class="cls-1" d="M489.71,666.92c-4.91,1.18-5.78,2.83-10.5,5.1-5.83,2.81-11.58,5.81-17.24,8.95-8.79,4.86-19.61,9.91-26.55,17.39-.27.29-.53.58-.77.9-5.61,7.56-5.85,33.17-5.37,34.87.49,1.71,63.79,6.71,66.94-2.32,2.66-7.63.62-15.72.91-23.67.42-11.48,1.05-25.16-.18-35.41-.1-.85-4.94-6.38-7.25-5.82Z"/>
        <path class="cls-1" d="M429.11,749.99c-3.98,11.71-1.78,41.46,3.09,45.6,4.88,4.15,56.09,3.96,61.45,3.71,5.37-.24,5.03-25.91,5.12-34.2.09-8.29.65-22.39-2.52-23.61-3.17-1.22-26.25-1.02-33.33,1.66s-33.82,6.83-33.82,6.83Z"/>
        <path class="cls-1" d="M429.11,809.01c1.14,18.05,12.42,165.73,56.66,176.14,4.15.98,8.57,5.44,9.82,3,3.29-7.8,3.29-164.5,3.29-171.33s-10.46-7.53-15.83-8.99c-5.37-1.46-48.72-2.71-51.33-.76l-2.61,1.95Z"/>
        <path class="cls-1" d="M374.43,773.85c.28-.68,1.19-.79,1.69-.26,20.6,21.53,35.02,28.05,39.02,31.28,3.78,3.05,4.88,69.99,9.27,86.57,1.98,7.46,5.77,14.89,2.46,16.5-4.39,2.13-15.96-3.21-19.26-6.8l-39.29-42.86s.87-71.57,6.11-84.42Z"/>
        <path class="cls-1" d="M408.06,624.64c-16.58,14.14-23.95,20.89-25.73,24.02-1.98,3.48,22.56,23.29,29.14,25.48,6.58,2.19,2.93-18.05,2.93-23.66s.49-27.56,0-29.02c-.49-1.46-6.34,3.17-6.34,3.17Z"/>
        <path class="cls-1" d="M380.18,661.98c.44-1.39,2.17-1.87,3.23-.87,7.58,7.16,28.49,17.87,29.68,21.69.92,2.97,2.9,24.6.22,25.33-2.68.73-39.36-24.69-38.9-27,.61-3.07,4.05-13.7,5.77-19.16Z"/>
        <path class="cls-1" d="M455.98,330.9c16.46,13.29,16.78,27.82,24.02,42.31,20.85,41.7,13.26,66.86,8.42,61.68-14.1-15.1-28.78-63.39-30.98-67.41-2.19-4.02-1.46-36.58-1.46-36.58Z"/>
        <path class="cls-1" d="M453.45,391.38c-1.95,15.12-.75,20.12,2.42,28.17s20.97,16.46,22.67,17.68c-9.63-23.05-18.53-38.9-22.67-53.29-3.42.73-2.42,7.44-2.42,7.44Z"/>
        <path class="cls-1" d="M441.23,388.58c-8.29,10-39.75,30.67-48.53,33.41-1.46,5.67,44.63,10.85,50.48,6.22,5.85-4.63,5.85-34.51,4.88-39.63-.98-5.12-6.83,0-6.83,0Z"/>
        <path class="cls-1" d="M384.79,442.47c-4.4,2.87-10.44,4.19-15.21,6.39-14.07,6.48-27.13,13.52-26.99,30.78.1,13.43,1.71,27.98-5.56,39.27-4.63,7.19-10.74,13.22-16.16,19.79-5.36,6.49-8.52,12.38-17.65,7.61-21.42-11.2-36.22-33.2-34.33-57.85,1.05-13.63,7.23-26.79,16.93-36.4,10.77-10.67,21.24-21.16,35.15-27.91,19.07-9.25,40.29-5.85,57.48,6,6.22,4.29,6.35,12.33,6.35,12.33Z"/>
        <path class="cls-1" d="M321.12,587.8c-8.96,33.34-43.46,107.59-44.03,109.34-1.37,4.27,1.32,9.91,4.82,12.46,5.48,3.99,11.25-4.45,14.21-8.1,20-24.67,37.66-71.08,40.48-82.46,3.38-13.64,14.14-32.92,9.75-55.85-4.39-22.92-8.29-33.65-10.24-31.21-2.57,3.22-3.13,9.96-4.13,13.81-2.7,10.4-4.13,21.16-7.08,31.41-1.04,3.59-2.81,6.96-3.79,10.6Z"/>
        <path class="cls-1" d="M288.08,562.13c-11.35,5.85-30.59,39.29-33.29,55.97-5,30.94-3.48,47.8-3.78,56.94-.3,9.14,16.1,7.32,29.75-5.12,8.5-7.75,31.39-59.75,26.83-85.44-3.33-18.76-9.27-26.74-19.51-22.35Z"/>
        <path class="cls-1" d="M245.89,688.74c12.24-6.09,6.29,74.05-2.19,95.15-9.02,22.44-20.8,52.33-32.19,79.74-6.81,16.39-26.09,75.84-34.39,79.74-8.29,3.9-.49-35.36,3.41-50.97,3.9-15.61,15.12-80.51,18.53-92.69,3.41-12.18.98-46.12,9.75-58.66,8.78-12.54,19.02-43.34,37.07-52.32Z"/>
        <path class="cls-1" d="M279.18,729.02c6.34,23.9-3.6,46.64-8.47,60.78-4.88,14.14-14.45,27.98-23.23,41.64-8.78,13.66-32.96,70.49-38.65,85.6-13.65,36.21-20.24,25.85-14.88,12.19,5.37-13.66,15.49-44.63,21.83-59.26,6.34-14.63,8.17-23.3,15.73-39.87,7.44-16.3,15.97-33.78,21.34-48.41,5.37-14.63,7.8-50.24,16.58-52.68,8.78-2.44,9.75,0,9.75,0Z"/>
        <path class="cls-1" d="M256.99,829.67c-10.77,13.66-19.1,31.59-24.51,44.2-4.99,11.65-9.79,23.4-14.43,35.19-4.3,10.93-8.69,21.93-12.06,33.2-.56,1.88-2.23,4.64-1.44,6.61,2.02-1.64,3.01-4.16,4.28-6.34,1.34-2.3,2.61-4.64,3.83-7,2.9-5.58,5.58-11.27,8.19-16.99,5.92-12.98,11.45-26.13,17.14-39.22,4.89-11.24,9.73-22.6,15.64-33.36.29-.53.59-1.07.89-1.6,14.14-24.87,18.53-31.7,24.39-46.33,5.85-14.63,18.53-38.53,16.58-42.92-1.36-3.06-6.26-7.95-8.4-9.51-.75-.54-1.39,4.2-1.46,5.12-2.31,30.48-18.9,66.59-28.65,78.95Z"/>
        <path class="cls-1" d="M389.04,1315.64c7.68,0,33.3,1.83,36.22,4.76,2.92,2.93,8.41,43.53-7.69,65.48-16.1,21.95-30,10.61-34.39-2.19-4.39-12.8-17.92-48.65-12.8-59.63s18.66-8.41,18.66-8.41Z"/>
        <path class="cls-1" d="M437.69,1340.52c-5.49,25.24-9.12,36.21-26.34,70.23-14.11,27.89-19.04,53.77-12.45,53.04s30.37-55.65,34.03-65.85c3.66-10.21,14.67-41.47,15.55-47.91,1.24-9.09-1.65-15-3.84-17.56-2.19-2.56-6.95,8.05-6.95,8.05Z"/>
        <path class="cls-1" d="M435.62,1415.26c-6.34,19.51-28.78,49.75-30.24,68.77-1.46,19.02,13.32,140.71,11.71,155.83,5.94-10.32,13.4-58.05,23.9-83.16,6.47-15.46,11.4-36.05,0-105.35-3.32-20.21-5.37-36.09-5.37-36.09Z"/>
        <path class="cls-1" d="M369.25,1359.9c8.09,54.87,35.16,185.83,38.09,244.36,2.93,58.53.73,50.85-1.83,55.6-2.56,4.76-25.97-60.24-33.29-96.82s-16.1-125.84-12.68-159.98c3.41-34.14,1.95-60.48,5.37-59.02,3.41,1.46,4.35,15.85,4.35,15.85Z"/>
        <path class="cls-1" d="M348.32,1423.55c-3.41,39.99-1.95,114.62,3.41,145.83,5.37,31.22,21.95,94.13,23.41,104.86s-3.41,22.92,0,26.83c3.41,3.9,15.12-20.48,13.17-40.97-1.95-20.49-16.74-72.68-20.81-93.16-4.07-20.48-14.31-72.18-13.82-90.23.49-18.05.49-40.97,1.46-59.02.98-18.05,3.41-25.36,0-25.36s-6.83,31.22-6.83,31.22Z"/>
        <path class="cls-1" d="M373.58,1746.92c9.11,16.7,40.97,23.9,45.36,39.99,6.83-6.34,12.19-32.19,8.78-46.82-3.41-14.63-6.34-25.36-9.75-30.24-3.41-4.88-4.41-7.32-7.8-12.19-3.04-4.36-13.41-15.3-21.22-6.52-7.8,8.78-6.44,12.86-8.22,24.57-1.78,11.71-10.07,25.85-7.15,31.22Z"/>
        <path class="cls-1" d="M401.11,1672.66c17.92,16.22,22.68,39.51,22.68,33.65s1.1-22.31-5.49-29.63-10.17-8.41-14.41-8.41-2.78,4.39-2.78,4.39Z"/>
        <path class="cls-1" d="M379.17,1773.26c-5.49,14.27-36.21,48.9-39.87,55.85-3.66,6.95,20.97,14.14,26.09,14.14s20.97,3.05,24.63,4.88c3.66,1.83,4.51-11.58,4.88-15.97.37-4.39,13.97-26.34,9-36.95-4.97-10.61,7.34-7.32-3.02-13.9-10.36-6.58-21.7-8.05-21.7-8.05Z"/>
        <path class="cls-1" d="M407.82,1805.09c0,8.41-.29,18.66-5.27,31.09-4.97,12.44,1.1,16.1,2.63,15.36s12.14-2.93,12.14-2.93c0,0,4.02-6.58,2.93-10.61-1.1-4.02,9.75-15.63,3.9-25.24-5.85-9.61-7.34-20.61-8.78-23.9-1.44-3.29-7.56,16.22-7.56,16.22Z"/>
        <path class="cls-1" d="M164.59,957.04c2.02-.35,4.05-.44,6.09-.2,11.62,1.38,31.87,3.72,36.48,16.86.54,1.53.58,3.17.59,4.79.16,17.13-1.93,34.31-6.34,50.87-.83,3.11-1.79,6.25-3.64,8.89-10.4,14.89-38.44,4.77-50.17-2.66-10.6-6.71-26.53-17.09-27.26-30.73-.65-12.12,6.6-25.12,16.35-32.04,7.99-5.67,17.73-14.02,27.89-15.78Z"/>
        <path class="cls-1" d="M181.54,1051.66c-.14,7.75-.25,15.5-.2,23.25.05,4.98.19,9.97.69,14.94.42,4.13.52,11.78,3.12,15.03,1.55,1.93,5.92-9.97,6.06-10.7.68-3.38.56-45.37,2.39-45.58-4.08.47-8.19,1.7-12.06,3.06Z"/>
        <path class="cls-1" d="M157.25,1051.03c-3.22,13.53-4.35,27.69-6.65,41.41-.75,4.49-1.51,8.98-2.21,13.48-.92,5.95-1.94,10.86-1.27,16.98.06.57.15,1.17.51,1.61,1.69,2.02,5.72-.04,6.96-1.57,1.37-1.7,1.92-3.9,2.27-6.05.97-5.98,2.39-11.89,3.6-17.84,1.83-9.01,3.56-18.05,5.38-27.06,1.12-5.54,2.24-11.08,3.36-16.62.14-.67.27-1.4-.03-2.02-.61-1.27-11.89-2.45-11.93-2.32Z"/>
        <path class="cls-1" d="M135.81,1045.02c-1.94,2.01-3.24,9.4-3.86,11.24-1.68,5.04-3.47,10.04-5.31,15.02-3.62,9.78-7.46,19.48-11.16,29.23-2.47,6.5-5.71,12.78-5.62,19.91.05,3.81,4.76,1.93,6.76.99,6.39-3.02,7.2-8.04,9.6-13.96,1.86-4.58,3.76-9.14,5.67-13.69,5.94-14.12,11.96-28.18,18.73-41.92.25-.51.51-1.04.57-1.61.52-5.06-11.37-5.59-14.36-5.71-.36-.01-.7.17-1.02.51Z"/>
        <path class="cls-1" d="M118.94,1029.38c-3.44,2.89-10.72,19.33-11.99,21.68-3.65,6.75-7.29,13.5-10.93,20.25-2.94,5.45-8.7,12.6-9.38,18.88-.21,1.55-1.63,10.07,2.16,8.34.57-.26,1-.74,1.41-1.21,10-11.34,17.77-23.92,26.36-36.29,2.52-3.63,4.91-7.34,7.58-10.86,2.3-3.03,6.23-5.86,8.05-9.1.79-1.41.69-3.13.57-4.74-.04-.58-.09-1.18-.4-1.67-.28-.45-.75-.76-1.2-1.04-3.47-2.12-7.27-3.7-11.22-4.66-.28-.07-.63.09-1.02.42Z"/>
        <path class="cls-1" d="M116.16,978.74c-6.1,5.85-16.1,17.28-20.24,25.95-4.15,8.68-21.95,12.09-22.19,17.46-.24,5.37-1.46,8.78.98,9.02,2.44.24,11.71.73,17.31-4.39,5.61-5.12,9.75-8.05,13.41-13.17,3.66-5.12,6.83-11.22,8.54-19.27,1.71-8.05,6.58-19.27,6.58-19.27l-4.39,3.66Z"/>
        <path class="cls-1" d="M502.75,342.98c.41,19.02,2.78,50.97.26,58.04-2.52,7.07-8.54-18.05-16.75-35.36-8.2-17.31-5.11-10.81-7.31-18.62-2.19-7.8-15.04-7.07-6.26-7.8,8.78-.73,30.06,3.74,30.06,3.74Z"/>
        <path class="cls-1" d="M400.62,906.97c15.01,11.22,61.83,70.72,77.09,145.35,0,0-7.99,26.72-18.7,24.39-2.38-.52-36.79-110.11-64.23-160.95-7.86-14.58-8.41-22.31-8.41-22.31l14.25,13.53Z"/>
        <path class="cls-1" d="M378.07,907.41c18.64,62.06,80.68,297.68,79.56,334.34,18.64-53.35,3.35-123.52-19.57-190.95-19.17-56.39-59.99-143.39-59.99-143.39Z"/>
        <path class="cls-1" d="M368.31,920.7c11.71,54.59,51.72,142.56,56.79,218.75,4.89,73.42-3.75,147.8-17.41,153.65-13.66,5.85-36.87-90.8-40.85-107.07-10.09-41.27-32.29-116.65-29.85-155.59,2.11-33.61,7.77-51.23,12.29-66.82,6.08-20.95,19.02-42.92,19.02-42.92Z"/>
        <path class="cls-1" d="M342.22,1109.21c2.44,21.95,17.19,93.77,35.85,140.22,8.69,21.64,11.22,44.87,4.39,52.19-6.83,7.32-14.63-33.17-25.36-50.24-10.73-17.07-19.69-72.17-20.28-94.38-.77-28.98-5.57-51.7-3.13-59.5,2.44-7.8,8.54,11.71,8.54,11.71Z"/>
        <path class="cls-1" d="M430.53,1156.27c7.53,84.01-13.38,124.86-2.23,142.42,11.15,17.56,19.91,9.94,18.53.24-2.44-17.21,10.61-45.2,0-94.86-5.61-26.26-16.31-47.8-16.31-47.8Z"/>
        <path class="cls-1" d="M481.71,1063.12c-9.02,13.41-21.22,25.89-20.97,30.14.24,4.25,12.68,68.63,11.95,75.94,7.56-7.32,14.63-95.11,14.14-103.16-.49-8.05-5.12-2.93-5.12-2.93Z"/>
        <path class="cls-1" d="M652.91,505.01c2.35,31.47-5.9,69.53-31.23,84.64-9.3,5.55-20.1,7.97-30.71,10.11-33.33,6.72-73.63-9.88-76.89-40.34-3.49-32.59-8.45-71.6,6.18-100.13,9.73-18.98,19.14-19.02,29.75-20.12,10.61-1.1,43.41-2.19,56.22,3.66,16.64,7.61,36.25,18.66,42.1,37.07,2.32,7.32,3.91,15.93,4.59,25.11Z"/>
        <path class="cls-1" d="M642.68,577.82c-10.24,12.07-25.49,20.52-34.26,25.01-4.43,2.27-4.88,10.84-1.22,11.93,3.66,1.1,33.65-9.6,37.31-16.32s4.76-16.6,4.02-20.62c-.73-4.02-5.85,0-5.85,0Z"/>
        <path class="cls-1" d="M652.89,606.15c.14.81.12,1.63-.09,2.42-3.4,12.63-15.42,33.77-20.24,36.18-2.93,1.46-16.46-13.17-18.29-14.27-1.83-1.1-5.85-6.58-5.85-6.58,0,0,29.07-10.51,34.6-15.55,1.96-1.78,8.29-11.64,8.29-11.64l1.59,9.43Z"/>
        <path class="cls-1" d="M650.84,629.4s2.56,19.39-4.39,34.02c-6.95,14.63-9.88,16.46-9.88,16.46,0,0-8.78-23.41-5.12-27.07,3.66-3.66,19.39-23.41,19.39-23.41Z"/>
        <path class="cls-1" d="M631,723.96c-4.63,7.07-35.33,30.18-38.5,34.08-3.17,3.9.03,27.74-1.04,37.07,12.19-2.93,38.09-24.26,39.8-32.56,1.71-8.29-.26-38.59-.26-38.59Z"/>
        <path class="cls-1" d="M632.55,685.77c-1.71,1.83-28.72,24.51-40,29.82-4.83,2.28-1.09,37.49-1.09,37.49,0,0,33.37-26.9,38.4-34.95s3.11-13.22,3.6-16.64-.91-15.72-.91-15.72Z"/>
        <path class="cls-1" d="M575.86,617.69c6.53,4.43,6.58,17.19,7.68,22.31,1.1,5.12-2.56,28.17-2.56,28.17,0,0-3.66,18.29-5.12,20.49-1.83,2.74-49.91-28.37-54.53-31.23-3.9-2.41-8.94-2.36-10.76-7.45-3-8.37-1.43-18.59-1.06-27.39.32-7.74-.14-24.23,7.26-29.08,6.63-4.35,15.58,3.13,21.5,5.74,10.21,4.51,20.44,9.06,30.33,14.26,2.47,1.3,4.96,2.62,7.27,4.19Z"/>
        <path class="cls-1" d="M516.16,666.92c4.91,1.18,5.78,2.83,10.5,5.1,5.83,2.81,11.58,5.81,17.24,8.95,8.79,4.86,19.61,9.91,26.55,17.39.27.29.53.58.77.9,5.61,7.56,5.85,33.17,5.37,34.87-.49,1.71-63.79,6.71-66.94-2.32-2.66-7.63-.62-15.72-.91-23.67-.42-11.48-1.05-25.16.18-35.41.1-.85,4.94-6.38,7.25-5.82Z"/>
        <path class="cls-1" d="M576.75,749.99c3.98,11.71,1.78,41.46-3.09,45.6-4.88,4.15-56.09,3.96-61.45,3.71-5.37-.24-5.03-25.91-5.12-34.2-.09-8.29-.65-22.39,2.52-23.61,3.17-1.22,26.25-1.02,33.33,1.66,7.07,2.68,33.82,6.83,33.82,6.83Z"/>
        <path class="cls-1" d="M576.75,809.01c-1.14,18.05-12.42,165.73-56.66,176.14-4.15.98-8.57,5.44-9.82,3-3.29-7.8-3.29-164.5-3.29-171.33s10.46-7.53,15.83-8.99,48.72-2.71,51.33-.76l2.61,1.95Z"/>
        <path class="cls-1" d="M631.44,773.85c-.28-.68-1.18-.79-1.69-.26-20.6,21.53-35.02,28.05-39.02,31.28-3.78,3.05-4.88,69.99-9.27,86.57-1.98,7.46-5.77,14.89-2.46,16.5,4.39,2.13,15.96-3.21,19.26-6.8l39.29-42.86s-.87-71.57-6.11-84.42Z"/>
        <path class="cls-1" d="M597.8,624.64c16.58,14.14,23.95,20.89,25.73,24.02,1.98,3.48-22.56,23.29-29.14,25.48s-2.93-18.05-2.93-23.66-.49-27.56,0-29.02,6.34,3.17,6.34,3.17Z"/>
        <path class="cls-1" d="M625.69,661.98c-.44-1.39-2.17-1.87-3.23-.87-7.58,7.16-28.49,17.87-29.68,21.69-.92,2.97-2.9,24.6-.22,25.33s39.36-24.69,38.9-27c-.61-3.07-4.05-13.7-5.77-19.16Z"/>
        <path class="cls-1" d="M549.88,330.9c-16.46,13.29-16.78,27.82-24.02,42.31-20.85,41.7-13.26,66.86-8.42,61.68,14.1-15.1,28.78-63.39,30.98-67.41,2.19-4.02,1.46-36.58,1.46-36.58Z"/>
        <path class="cls-1" d="M552.42,391.38c1.95,15.12.75,20.12-2.42,28.17s-20.97,16.46-22.67,17.68c9.63-23.05,18.53-38.9,22.67-53.29,3.42.73,2.42,7.44,2.42,7.44Z"/>
        <path class="cls-1" d="M564.64,388.58c8.29,10,39.75,30.67,48.53,33.41,1.46,5.67-44.63,10.85-50.48,6.22-5.85-4.63-5.85-34.51-4.88-39.63.98-5.12,6.83,0,6.83,0Z"/>
        <path class="cls-1" d="M621.08,442.47c4.4,2.87,10.44,4.19,15.21,6.39,14.07,6.48,27.13,13.52,26.99,30.78-.1,13.43-1.71,27.98,5.56,39.27,4.63,7.19,10.74,13.22,16.16,19.79,5.36,6.49,8.52,12.38,17.65,7.61,21.42-11.2,36.22-33.2,34.33-57.85-1.05-13.63-7.23-26.79-16.93-36.4-10.77-10.67-21.24-21.16-35.15-27.91-19.07-9.25-40.29-5.85-57.48,6-6.22,4.29-6.35,12.33-6.35,12.33Z"/>
        <path class="cls-1" d="M684.75,587.8c8.96,33.34,43.46,107.59,44.03,109.34,1.37,4.27-1.32,9.91-4.82,12.46-5.48,3.99-11.25-4.45-14.21-8.1-20-24.67-37.66-71.08-40.48-82.46-3.38-13.64-14.14-32.92-9.75-55.85,4.39-22.92,8.29-33.65,10.24-31.21,2.57,3.22,3.13,9.96,4.13,13.81,2.7,10.4,4.13,21.16,7.08,31.41,1.04,3.59,2.81,6.96,3.79,10.6Z"/>
        <path class="cls-1" d="M717.79,562.13c11.35,5.85,30.59,39.29,33.29,55.97,5,30.94,3.48,47.8,3.78,56.94.3,9.14-16.1,7.32-29.75-5.12-8.5-7.75-31.39-59.75-26.83-85.44,3.33-18.76,9.27-26.74,19.51-22.35Z"/>
        <path class="cls-1" d="M759.98,688.74c-12.24-6.09-6.29,74.05,2.19,95.15,9.02,22.44,20.8,52.33,32.19,79.74,6.81,16.39,26.09,75.84,34.39,79.74,8.29,3.9.49-35.36-3.41-50.97-3.9-15.61-15.12-80.51-18.53-92.69-3.41-12.18-.98-46.12-9.75-58.66-8.78-12.54-19.02-43.34-37.07-52.32Z"/>
        <path class="cls-1" d="M726.69,729.02c-6.34,23.9,3.6,46.64,8.47,60.78,4.88,14.14,14.45,27.98,23.23,41.64,8.78,13.66,32.96,70.49,38.65,85.6,13.65,36.21,20.24,25.85,14.88,12.19-5.37-13.66-15.49-44.63-21.83-59.26-6.34-14.63-8.17-23.3-15.73-39.87-7.44-16.3-15.97-33.78-21.34-48.41-5.37-14.63-7.8-50.24-16.58-52.68-8.78-2.44-9.75,0-9.75,0Z"/>
        <path class="cls-1" d="M748.88,829.67c10.77,13.66,19.1,31.59,24.51,44.2,4.99,11.65,9.79,23.4,14.43,35.19,4.3,10.93,8.69,21.93,12.06,33.2.56,1.88,2.23,4.64,1.44,6.61-2.02-1.64-3.01-4.16-4.28-6.34-1.34-2.3-2.61-4.64-3.83-7-2.9-5.58-5.58-11.27-8.19-16.99-5.92-12.98-11.45-26.13-17.14-39.22-4.89-11.24-9.73-22.6-15.64-33.36-.29-.53-.59-1.07-.89-1.6-14.14-24.87-18.53-31.7-24.39-46.33-5.85-14.63-18.53-38.53-16.58-42.92,1.36-3.06,6.26-7.95,8.4-9.51.75-.54,1.39,4.2,1.46,5.12,2.31,30.48,18.9,66.59,28.65,78.95Z"/>
        <path class="cls-1" d="M616.83,1315.64c-7.68,0-33.3,1.83-36.22,4.76s-8.41,43.53,7.69,65.48c16.1,21.95,30,10.61,34.39-2.19,4.39-12.8,17.92-48.65,12.8-59.63-5.12-10.97-18.66-8.41-18.66-8.41Z"/>
        <path class="cls-1" d="M568.17,1340.52c5.49,25.24,9.12,36.21,26.34,70.23,14.11,27.89,19.04,53.77,12.45,53.04-6.59-.73-30.37-55.65-34.03-65.85s-14.67-41.47-15.55-47.91c-1.24-9.09,1.65-15,3.84-17.56,2.19-2.56,6.95,8.05,6.95,8.05Z"/>
        <path class="cls-1" d="M570.25,1415.26c6.34,19.51,28.78,49.75,30.24,68.77,1.46,19.02-13.32,140.71-11.71,155.83-5.94-10.32-13.4-58.05-23.9-83.16-6.47-15.46-11.4-36.05,0-105.35,3.32-20.21,5.37-36.09,5.37-36.09Z"/>
        <path class="cls-1" d="M636.62,1359.9c-8.09,54.87-35.16,185.83-38.09,244.36-2.93,58.53-.73,50.85,1.83,55.6,2.56,4.76,25.97-60.24,33.29-96.82,7.32-36.58,16.1-125.84,12.68-159.98-3.41-34.14-1.95-60.48-5.37-59.02-3.41,1.46-4.35,15.85-4.35,15.85Z"/>
        <path class="cls-1" d="M657.55,1423.55c3.41,39.99,1.95,114.62-3.41,145.83-5.37,31.22-21.95,94.13-23.41,104.86-1.46,10.73,3.41,22.92,0,26.83-3.41,3.9-15.12-20.48-13.17-40.97,1.95-20.49,16.74-72.68,20.81-93.16,4.07-20.48,14.31-72.18,13.82-90.23-.49-18.05-.49-40.97-1.46-59.02-.98-18.05-3.41-25.36,0-25.36s6.83,31.22,6.83,31.22Z"/>
        <path class="cls-1" d="M632.29,1746.92c-9.11,16.7-40.97,23.9-45.36,39.99-6.83-6.34-12.19-32.19-8.78-46.82,3.41-14.63,6.34-25.36,9.75-30.24,3.41-4.88,4.41-7.32,7.8-12.19,3.04-4.36,13.41-15.3,21.22-6.52,7.8,8.78,6.44,12.86,8.22,24.57,1.78,11.71,10.07,25.85,7.15,31.22Z"/>
        <path class="cls-1" d="M604.75,1672.66c-17.92,16.22-22.68,39.51-22.68,33.65s-1.1-22.31,5.49-29.63c6.58-7.32,10.17-8.41,14.41-8.41s2.78,4.39,2.78,4.39Z"/>
        <path class="cls-1" d="M626.7,1773.26c5.49,14.27,36.21,48.9,39.87,55.85,3.66,6.95-20.97,14.14-26.09,14.14s-20.97,3.05-24.63,4.88c-3.66,1.83-4.51-11.58-4.88-15.97-.37-4.39-13.97-26.34-9-36.95,4.97-10.61-7.34-7.32,3.02-13.9,10.36-6.58,21.7-8.05,21.7-8.05Z"/>
        <path class="cls-1" d="M598.05,1805.09c0,8.41.29,18.66,5.27,31.09,4.97,12.44-1.1,16.1-2.63,15.36s-12.14-2.93-12.14-2.93c0,0-4.02-6.58-2.93-10.61,1.1-4.02-9.75-15.63-3.9-25.24,5.85-9.61,7.34-20.61,8.78-23.9,1.44-3.29,7.56,16.22,7.56,16.22Z"/>
        <path class="cls-1" d="M841.28,957.04c-2.02-.35-4.05-.44-6.09-.2-11.62,1.38-31.87,3.72-36.48,16.86-.54,1.53-.58,3.17-.59,4.79-.16,17.13,1.93,34.31,6.34,50.87.83,3.11,1.8,6.25,3.64,8.89,10.4,14.89,38.44,4.77,50.17-2.66,10.6-6.71,26.53-17.09,27.26-30.73.65-12.12-6.6-25.12-16.35-32.04-7.99-5.67-17.73-14.02-27.89-15.78Z"/>
        <path class="cls-1" d="M824.33,1051.66c.14,7.75.25,15.5.2,23.25-.05,4.98-.19,9.97-.69,14.94-.42,4.13-.52,11.78-3.12,15.03-1.55,1.93-5.92-9.97-6.06-10.7-.68-3.38-.56-45.37-2.39-45.58,4.08.47,8.19,1.7,12.06,3.06Z"/>
        <path class="cls-1" d="M848.62,1051.03c3.22,13.53,4.35,27.69,6.65,41.41.75,4.49,1.51,8.98,2.21,13.48.92,5.95,1.94,10.86,1.27,16.98-.06.57-.15,1.17-.51,1.61-1.69,2.02-5.72-.04-6.96-1.57-1.37-1.7-1.92-3.9-2.27-6.05-.97-5.98-2.39-11.89-3.6-17.84-1.83-9.01-3.56-18.05-5.38-27.06-1.12-5.54-2.24-11.08-3.36-16.62-.14-.67-.27-1.4.03-2.02.61-1.27,11.89-2.45,11.93-2.32Z"/>
        <path class="cls-1" d="M870.06,1045.02c1.94,2.01,3.24,9.4,3.86,11.24,1.68,5.04,3.47,10.04,5.31,15.02,3.62,9.78,7.46,19.48,11.16,29.23,2.47,6.5,5.71,12.78,5.62,19.91-.05,3.81-4.76,1.93-6.76.99-6.39-3.02-7.2-8.04-9.6-13.96-1.86-4.58-3.76-9.14-5.67-13.69-5.94-14.12-11.96-28.18-18.73-41.92-.25-.51-.51-1.04-.57-1.61-.52-5.06,11.37-5.59,14.36-5.71.36-.01.7.17,1.02.51Z"/>
        <path class="cls-1" d="M886.93,1029.38c3.44,2.89,10.72,19.33,11.99,21.68,3.65,6.75,7.29,13.5,10.93,20.25,2.94,5.45,8.7,12.6,9.38,18.88.21,1.55,1.63,10.07-2.16,8.34-.57-.26-1-.74-1.41-1.21-10-11.34-17.77-23.92-26.36-36.29-2.52-3.63-4.91-7.34-7.58-10.86-2.3-3.03-6.23-5.86-8.05-9.1-.79-1.41-.69-3.13-.57-4.74.04-.58.09-1.18.4-1.67.28-.45.75-.76,1.2-1.04,3.47-2.12,7.27-3.7,11.22-4.66.28-.07.63.09,1.02.42Z"/>
        <path class="cls-1" d="M889.71,978.74c6.1,5.85,16.1,17.28,20.24,25.95,4.15,8.68,21.95,12.09,22.19,17.46.24,5.37,1.46,8.78-.98,9.02s-11.71.73-17.31-4.39-9.75-8.05-13.41-13.17c-3.66-5.12-6.83-11.22-8.54-19.27-1.71-8.05-6.58-19.27-6.58-19.27l4.39,3.66Z"/>
        <path class="cls-1" d="M502.75,342.98c-.41,19.02-2.4,50.97.11,58.04,2.52,7.07,8.54-18.05,16.75-35.36,8.2-17.31,5.11-10.81,7.31-18.62,2.19-7.8,15.04-7.07,6.26-7.8-8.78-.73-30.43,3.74-30.43,3.74Z"/>
        <path class="cls-1" d="M605.25,906.97c-15.01,11.22-61.83,70.72-77.09,145.35,0,0,7.99,26.72,18.7,24.39,2.38-.52,36.79-110.11,64.23-160.95,7.86-14.58,8.41-22.31,8.41-22.31l-14.25,13.53Z"/>
        <path class="cls-1" d="M627.8,907.41c-18.64,62.06-80.68,297.68-79.56,334.34-18.64-53.35-3.35-123.52,19.57-190.95,19.17-56.39,59.99-143.39,59.99-143.39Z"/>
        <path class="cls-1" d="M637.55,920.7c-11.71,54.59-51.72,142.56-56.79,218.75-4.89,73.42,3.75,147.8,17.41,153.65,13.66,5.85,36.87-90.8,40.85-107.07,10.09-41.27,32.29-116.65,29.85-155.59-2.11-33.61-7.77-51.23-12.29-66.82-6.08-20.95-19.02-42.92-19.02-42.92Z"/>
        <path class="cls-1" d="M663.65,1109.21c-2.44,21.95-17.19,93.77-35.85,140.22-8.69,21.64-11.22,44.87-4.39,52.19,6.83,7.32,14.63-33.17,25.36-50.24,10.73-17.07,19.69-72.17,20.28-94.38.77-28.98,5.57-51.7,3.13-59.5-2.44-7.8-8.54,11.71-8.54,11.71Z"/>
        <path class="cls-1" d="M575.34,1156.27c-7.53,84.01,13.38,124.86,2.23,142.42-11.15,17.56-19.91,9.94-18.53.24,2.44-17.21-10.61-45.2,0-94.86,5.61-26.26,16.31-47.8,16.31-47.8Z"/>
        <path class="cls-1" d="M524.16,1063.12c9.02,13.41,21.22,25.89,20.97,30.14-.24,4.25-12.68,68.63-11.95,75.94-7.56-7.32-14.63-95.11-14.14-103.16.49-8.05,5.12-2.93,5.12-2.93Z"/>
      </g>
    </g>
  </g>
</svg>