<svg width="30" height="20" viewBox="0 0 30 20" fill="none" xmlns="http://www.w3.org/2000/svg">
<path d="M6.45678 7.27273C7.728 7.27273 8.97067 7.64595 10.0276 8.34519C11.0846 9.04444 11.9084 10.0383 12.3949 11.2011C12.8814 12.3639 13.0087 13.6434 12.7607 14.8778C12.5127 16.1123 11.9005 17.2462 11.0016 18.1361C10.1027 19.0261 8.95749 19.6322 7.7107 19.8777C6.46391 20.1233 5.17157 19.9972 3.99712 19.5156C2.82267 19.0339 1.81885 18.2183 1.11259 17.1718C0.406343 16.1253 0.0293824 14.895 0.0293824 13.6364L0 12.7273C0 9.35179 1.35434 6.11456 3.76508 3.72773C6.17582 1.3409 9.44549 0 12.8548 0V3.63636C11.6485 3.63315 10.4535 3.86674 9.33888 4.32363C8.22431 4.78052 7.21227 5.45164 6.36129 6.29818C6.03054 6.62503 5.72543 6.97635 5.4486 7.34909C5.77731 7.29818 6.11337 7.27091 6.45494 7.27091L6.45678 7.27273ZM22.9844 7.27273C24.2556 7.27273 25.4983 7.64595 26.5552 8.34519C27.6122 9.04444 28.436 10.0383 28.9225 11.2011C29.409 12.3639 29.5363 13.6434 29.2883 14.8778C29.0403 16.1123 28.4281 17.2462 27.5292 18.1361C26.6303 19.0261 25.4851 19.6322 24.2383 19.8777C22.9915 20.1233 21.6992 19.9972 20.5247 19.5156C19.3503 19.0339 18.3464 18.2183 17.6402 17.1718C16.9339 16.1253 16.557 14.895 16.557 13.6364L16.5276 12.7273C16.5276 9.35179 17.8819 6.11456 20.2927 3.72773C22.7034 1.3409 25.9731 0 29.3824 0V3.63636C28.1761 3.63315 26.9811 3.86674 25.8665 4.32363C24.7519 4.78052 23.7399 5.45164 22.8889 6.29818C22.5581 6.62503 22.253 6.97635 21.9762 7.34909C22.3049 7.29818 22.641 7.27273 22.9844 7.27273Z" fill="black"/>
</svg>
