<svg width="30" height="20" viewBox="0 0 30 20" fill="none" xmlns="http://www.w3.org/2000/svg">
<path d="M23.6073 12.7273C22.3487 12.7273 21.1183 12.3541 20.0718 11.6548C19.0253 10.9556 18.2097 9.9617 17.728 8.7989C17.2464 7.63609 17.1204 6.35658 17.3659 5.12215C17.6115 3.88773 18.2175 2.75384 19.1075 1.86387C19.9975 0.973899 21.1314 0.367821 22.3658 0.122278C23.6002 -0.123264 24.8797 0.00275726 26.0425 0.484406C27.2053 0.966054 28.1992 1.7817 28.8984 2.82819C29.5977 3.87469 29.9709 5.10503 29.9709 6.36364L30 7.27273C30 8.9441 29.6708 10.5991 29.0312 12.1432C28.3916 13.6874 27.4541 15.0904 26.2723 16.2723C25.0904 17.4541 23.6874 18.3916 22.1432 19.0312C20.5991 19.6708 18.9441 20 17.2727 20V16.3636C18.4671 16.3668 19.6502 16.1333 20.7538 15.6764C21.8573 15.2195 22.8593 14.5484 23.7018 13.7018C24.0293 13.375 24.3314 13.0237 24.6055 12.6509C24.2753 12.7028 23.9415 12.7289 23.6073 12.7291V12.7273ZM7.24364 12.7273C5.98503 12.7273 4.75469 12.3541 3.7082 11.6548C2.6617 10.9556 1.84606 9.9617 1.36441 8.7989C0.882762 7.63609 0.756741 6.35658 1.00228 5.12215C1.24783 3.88773 1.8539 2.75384 2.74387 1.86387C3.63384 0.973899 4.76774 0.367821 6.00216 0.122278C7.23658 -0.123264 8.5161 0.00275726 9.6789 0.484406C10.8417 0.966054 11.8356 1.7817 12.5348 2.82819C13.2341 3.87469 13.6073 5.10503 13.6073 6.36364L13.6364 7.27273C13.6364 10.6482 12.2955 13.8854 9.90864 16.2723C7.52181 18.6591 4.28458 20 0.909099 20V16.3636C2.10346 16.3668 3.28661 16.1333 4.39013 15.6764C5.49365 15.2195 6.49565 14.5484 7.33819 13.7018C7.66565 13.375 7.96774 13.0237 8.24182 12.6509C7.91163 12.7028 7.57789 12.7289 7.24364 12.7291V12.7273Z" fill="black"/>
</svg>
