<svg width="81" height="79" viewBox="0 0 81 79" fill="none" xmlns="http://www.w3.org/2000/svg">
<path d="M62.8933 21.7189C65.3756 21.7189 67.7562 20.7328 69.5114 18.9776C71.2666 17.2224 72.2527 14.8417 72.2527 12.3595C72.2527 9.87718 71.2666 7.49656 69.5114 5.74132C67.7562 3.98608 65.3756 3 62.8933 3C60.411 3 58.0304 3.98608 56.2751 5.74132C54.5199 7.49656 53.5338 9.87718 53.5338 12.3595C53.5338 14.8417 54.5199 17.2224 56.2751 18.9776C58.0304 20.7328 60.411 21.7189 62.8933 21.7189Z" stroke="#850000" stroke-width="6"/>
<path d="M17.9676 25.0321L32.9484 19.8433L53.5336 29.6688L32.9484 45.0127L53.5336 58.5652L40.4453 76M61.6202 34.1539L66.6406 36.885L77.8682 26.335M27.0444 52.6893L21.4849 60.0122L3 70.3825" stroke="#850000" stroke-width="6" stroke-linecap="round" stroke-linejoin="round"/>
</svg>
