<svg width="103" height="95" viewBox="0 0 103 95" fill="none" xmlns="http://www.w3.org/2000/svg">
<g clip-path="url(#clip0_48_4)">
<path d="M42.1173 90.3361C48.5003 91.6174 73.9765 96.0353 88.7002 80.8084C90.0777 79.3837 91.4199 77.7282 92.6561 75.796C91.1474 73.2437 89.1795 70.348 86.6364 67.3703C83.3668 63.5366 80.0668 60.6409 77.2563 58.5037C76.5902 60.0823 75.7981 61.666 74.8696 63.2394C66.7106 77.0312 52.0979 82.387 44.2921 84.4934C41.1132 82.223 37.6316 79.3888 34.1248 75.8729C27.3533 69.0923 22.8474 62.1529 19.8905 56.6279C18.3112 56.6535 11.3379 56.5818 6.02467 51.1748C3.55728 48.6685 2.35133 45.9266 1.75592 44.1533C2.78022 45.6396 4.52607 47.7614 7.24576 49.5655C11.6558 52.4919 16.0456 52.8712 18.064 52.9122C16.53 52.5637 10.5457 51.0159 6.39302 45.1476C1.33712 37.9877 3.03251 30.0847 3.31003 28.8803C2.6238 29.5414 1.93757 30.2026 1.25134 30.8637C1.95271 28.8547 3.18389 26.082 5.38386 23.2631C6.79164 21.4642 8.24483 20.0906 9.49114 19.0759C11.0251 17.9791 14.4713 15.8368 19.3708 15.3704C24.901 14.8476 29.089 16.7695 30.7441 17.6408C32.3335 18.6351 36.1027 21.3104 38.4036 26.3946C40.1141 30.177 40.2453 33.6159 40.1797 35.4815C39.993 37.2394 39.4279 40.3607 37.4298 43.6203C35.9614 46.0137 34.2509 47.6179 33.0248 48.5917C34.15 49.709 35.6183 50.9902 37.4701 52.21C39.549 53.5836 41.5118 54.4856 43.1063 55.0853C43.3889 53.3786 44.1155 50.3394 46.2498 47.2079C48.0865 44.5172 50.2007 42.8771 51.5631 41.9751C51.9163 39.8943 53.3291 33.1496 59.3033 27.7118C64.4652 23.0171 70.1316 21.9408 72.3165 21.6384C68.9408 18.5326 65.0051 15.2576 60.484 12.0134C54.4341 7.69288 48.6365 4.3564 43.4847 1.78357C48.7475 3.12636 55.4736 5.38143 62.7597 9.30218C69.5463 12.9564 74.8595 17.0002 78.7801 20.4545C83.2709 24.2113 89.9818 30.8022 95.29 40.8578C99.2257 48.3149 101.098 55.2288 102.041 60.2719C102.637 63.4444 102.743 67.6163 101.471 72.0034C97.3033 86.3897 78.659 91.6687 74.9857 92.7091C60.0652 96.9271 47.2338 92.4631 42.1173 90.3361Z" fill="black" stroke="black" stroke-width="2.1266" stroke-miterlimit="10"/>
<path d="M44.514 81.4696L40.7196 78.3843C41.8953 78.415 43.5755 78.333 45.4929 77.7795C47.1833 77.2926 48.5154 76.6007 49.4488 76.0165C46.4466 75.8524 43.4494 75.6884 40.4471 75.5193C39.5389 75.1042 38.6357 74.6327 37.7375 74.0894C28.5592 68.5286 24.8253 58.5294 23.2611 52.6662C23.9272 52.3382 24.8001 51.9794 25.8647 51.7283C26.9143 51.4772 27.8427 51.4054 28.5743 51.4003C30.4211 52.6765 32.4495 54.3011 34.483 56.3563C35.4064 57.2891 36.2339 58.2116 36.9756 59.1085C36.6981 58.4935 36.3752 57.8478 36.0018 57.1815C35.4316 56.1616 34.8362 55.2595 34.266 54.4856C37.9242 55.6286 43.2526 57.9554 47.7131 62.9114C48.6062 63.9057 49.3782 64.9051 50.0442 65.884C50.2309 65.2639 50.7254 63.3522 49.9383 61.1484C49.2672 59.2777 48.031 58.2014 47.4961 57.7914C48.1773 50.7853 52.0272 45.2501 57.1487 43.8612C58.2941 43.5485 60.4588 43.1847 63.3298 44.0816C63.6225 45.122 64.667 49.3092 62.5175 53.7732C59.8886 59.2264 54.5855 60.723 53.7882 60.9331C56.6593 61.6916 58.7684 61.1381 59.6969 60.8255C61.7051 60.1387 62.9918 58.9138 64.6872 57.2994C66.1656 55.8899 67.2151 54.5523 67.8862 53.6092C67.9165 54.7675 67.9064 56.0232 67.8307 57.3557C67.755 58.76 67.6188 60.0669 67.4523 61.2662C68.1234 60.0874 68.8146 58.7088 69.4605 57.1354C70.1013 55.5671 70.5756 54.0961 70.9238 52.7841C71.3274 54.009 71.8169 56.0334 71.5192 58.4576C71.06 62.1939 68.9963 64.6591 66.8569 67.2114C65.4642 68.872 63.1633 71.2552 59.7019 73.4334C59.9895 71.9112 60.2822 70.3839 60.5698 68.8617C59.2932 70.7324 57.4818 72.9926 54.9841 75.1964C51.1089 78.6047 47.2135 80.46 44.514 81.4696Z" fill="white" stroke="black" stroke-width="2.1266" stroke-miterlimit="10"/>
<path d="M88.13 58.6165C86.3639 57.2174 84.4163 55.7823 82.2768 54.3627C79.0475 52.2203 75.9444 50.488 73.0884 49.0735C76.2875 52.8354 80.3746 57.038 85.491 61.174C88.9424 63.9621 92.2877 66.2633 95.3707 68.1545C95.4969 66.5964 95.5423 64.7872 95.4111 62.7833C95.2698 60.6205 94.957 58.7037 94.5987 57.0841C93.4432 56.8535 92.2625 56.6331 91.0616 56.423C89.5024 56.1462 87.9685 55.9002 86.4649 55.6798C87.0199 56.6587 87.5749 57.6376 88.13 58.6165Z" fill="white" stroke="black" stroke-width="2.1266" stroke-miterlimit="10"/>
<path d="M75.9746 25.2876L74.8747 24.0063C73.7949 23.9551 67.1193 23.7449 61.9423 29.0444C57.6735 33.4161 57.1891 38.7155 57.1033 40.1147C58.834 39.7611 60.9987 39.4843 63.4863 39.5356C67.1092 39.6073 70.1064 40.3505 72.2306 41.0629C70.3183 41.3653 68.4059 41.6676 66.4986 41.97C70.0509 44.6659 75.4398 48.0638 82.5998 50.2728C86.5052 51.4772 90.0827 52.0666 93.09 52.3382C91.7831 48.7404 89.9515 44.5224 87.358 40.0327C84.6181 35.2868 81.7218 31.4378 79.1434 28.4293C77.5338 28.209 75.1017 28.0757 72.271 28.7163C68.2293 29.6338 65.434 31.6531 64.0161 32.8472C64.9193 31.5147 66.7257 29.2442 69.7481 27.4761C72.2105 26.041 74.5063 25.508 75.9746 25.2876Z" fill="white" stroke="black" stroke-width="2.1266" stroke-miterlimit="10"/>
<path d="M8.47692 44.0765C2.68939 37.0909 4.4756 25.9539 12.014 21.0337C18.8612 16.5595 28.5441 18.4711 33.0752 25.5746C37.2279 32.0785 35.7545 40.8989 30.0276 45.8139C23.69 51.2414 13.7902 50.4983 8.47692 44.0765Z" fill="white" stroke="black" stroke-width="2.1266" stroke-miterlimit="10"/>
<path d="M12.786 32.9395C11.3328 36.4809 12.6296 40.5452 15.6975 42.4671C19.0075 44.5428 23.5487 43.5998 25.8799 40.1916C25.2794 40.4068 21.6868 41.6164 17.9227 39.6278C13.9415 37.5316 12.9273 33.534 12.786 32.9395Z" fill="white" stroke="black" stroke-width="2.9772" stroke-miterlimit="10"/>
<path d="M19.0227 31.7555C19.2548 32.2116 19.7493 33.0265 20.6726 33.7184C21.6768 34.4718 22.6708 34.7025 23.1754 34.7845C22.2419 36.609 20.1176 37.0242 19.0227 36.2298C17.9227 35.4354 17.6149 33.2469 19.0227 31.7555Z" fill="white" stroke="black" stroke-width="2.9772" stroke-miterlimit="10"/>
<path d="M20.1025 27.3222C20.0268 26.9071 20.0318 26.4663 20.269 26.1383C21.0359 25.0723 23.9776 25.5028 25.6327 26.9532C28.0748 29.0955 27.2221 33.0419 27.1767 33.2315C26.7831 32.2526 25.4056 29.1724 22.2166 27.8604C21.4648 27.5528 20.7433 27.394 20.1025 27.3222Z" fill="white" stroke="black" stroke-width="3.2323" stroke-miterlimit="10"/>
</g>
<defs>
<clipPath id="clip0_48_4">
<rect width="103" height="95" rx="20" fill="white"/>
</clipPath>
</defs>
</svg>
