<svg width="73" height="73" viewBox="0 0 73 73" fill="none" xmlns="http://www.w3.org/2000/svg">
<path d="M67.7805 46.939L73 41.7195L67.7805 36.5L54.75 49.5305L23.4695 18.25L36.5 5.2195L31.2805 0L26.061 5.2195L20.8415 0L13.0305 7.811L7.811 2.5915L2.5915 7.811L7.811 13.0305L0 20.8415L5.2195 26.061L0 31.2805L5.2195 36.5L18.25 23.4695L49.5305 54.75L36.5 67.7805L41.7195 73L46.939 67.7805L52.1585 73L59.9695 65.189L65.189 70.4085L70.4085 65.189L65.189 59.9695L73 52.1585L67.7805 46.939Z" fill="#850000"/>
</svg>
