<svg width="123" height="123" viewBox="0 0 123 123" fill="none" xmlns="http://www.w3.org/2000/svg">
<circle cx="61.5" cy="61.5" r="61.5" fill="white"/>
<path fill-rule="evenodd" clip-rule="evenodd" d="M85.495 26.9895C84.8697 25.926 83.6519 25 82.5494 25C80.5748 25 78.0365 26.941 76.502 28.1177C74.2023 29.8767 71.5201 31.5468 68.6404 32.1291C66.5094 32.5536 63.967 32.2342 61.7208 31.6559C61.3505 31.5629 58.1664 30.4671 58.1664 30.4671C53.7563 28.4655 51.7981 34.155 50.0579 36.9573C48.8649 38.8699 47.3633 41.1506 45.656 43.4514C44.9743 43.3895 44.2876 43.4959 43.6583 43.7608C43.0289 44.0257 42.4767 44.4408 42.0518 44.9684C41.6269 45.4961 41.3427 46.1197 41.225 46.7826C41.1073 47.4456 41.1597 48.1269 41.3776 48.7649C40.1105 50.2894 38.9093 51.7491 37.7697 53.1564C36.9804 52.9374 36.1425 52.9553 35.3636 53.2078C34.5847 53.4603 33.9003 53.9359 33.3984 54.5736C32.8966 55.2112 32.6 55.9817 32.5469 56.7862C32.4938 57.5907 32.6866 58.3925 33.1005 59.0885C28.6904 64.8831 25.6543 69.594 23.9018 73.7874C22.4208 77.3458 21.7873 80.6738 22.0629 84.0665C22.3385 87.4106 23.4698 90.5283 25.0537 93.6743C27.2011 97.9404 32.4669 99.1091 36.3216 96.9214L96.8863 62.5499C98.776 61.4774 100.155 59.711 100.72 57.6392C101.284 55.5674 100.989 53.36 99.8977 51.5025L85.495 26.9895ZM86.5975 45.0406L80.7599 35.1052C77.6169 37.3131 74.1077 39.2824 70.29 40.0507C66.3654 40.8392 62.3955 40.1882 59.6474 39.4846C57.9566 39.0519 57.9854 39.7151 57.0762 41.1748C56.0395 42.8449 54.756 44.8101 53.2914 46.8603L53.7481 47.0827C54.2358 47.3159 54.6719 47.6416 55.0311 48.0411C55.3903 48.4406 55.6656 48.9059 55.8411 49.4104C56.0166 49.9148 56.0889 50.4484 56.0539 50.9805C56.0188 51.5125 55.877 52.0325 55.6368 52.5104C55.3965 52.9884 55.0624 53.415 54.6538 53.7655C54.2451 54.1161 53.77 54.3838 53.2557 54.5532C52.7414 54.7226 52.1981 54.7904 51.6571 54.7526C51.116 54.7148 50.5879 54.5722 50.1032 54.3331L48.1573 53.3868C47.1782 54.5676 46.2485 55.6918 45.3599 56.7836C46.2655 57.3186 46.9269 58.1756 47.2071 59.177C47.4874 60.1783 47.3649 61.2473 46.865 62.1623C46.3652 63.0773 45.5264 63.7682 44.5224 64.0918C43.5184 64.4154 42.4262 64.3469 41.4722 63.9005L40.1887 63.2778C35.721 69.0886 32.9812 73.3345 31.5084 76.8565C30.4182 79.4728 30.1097 81.523 30.2619 83.4195C30.4141 85.3039 31.0517 87.3176 32.3106 89.8571L92.7683 55.5462L90.7114 52.0443L72.8982 62.1536C71.9539 62.6814 70.8354 62.8206 69.787 62.5408C68.7387 62.261 67.8454 61.585 67.3022 60.6602C66.759 59.7355 66.61 58.6371 66.8877 57.6048C67.1654 56.5724 67.8472 55.6899 68.7843 55.1499L86.5975 45.0406Z" fill="#850000"/>
</svg>
